<svg width="1080" height="1080" version="1.1" xmlns="http://www.w3.org/2000/svg" desc="Created with imagetracer.js version 1.2.6" ><path fill="rgb(0,0,0)" stroke="rgb(0,0,0)" stroke-width="1" opacity="0" d="M 0 0 L 1080 0 L 1080 1080 L 0 1080 L 0 0 Z M 831 196 L 827 201 L 826 207 L 826 209 L 830 227 L 831 254 L 832 257 Q 833 259 835 257 L 835 259 L 840 258 L 845 236 L 845 214 L 841 201 Q 840 194 831 196 Z M 750 200 L 748 201 L 745 206 Q 747 214 752 219 L 783 247 L 800 266 L 804 268 L 807 266 L 807 260 L 801 244 L 786 224 L 765 204 L 756 200 L 750 200 Z M 794 200 L 791 203 L 792 214 L 810 244 L 815 259 L 819 261 L 821 261 L 823 259 L 823 249 L 820 234 L 816 222 L 809 212 L 809 210 L 801 201 L 794 200 Z M 874 200 L 871 201 Q 863 206 860 216 L 855 234 L 855 238 L 853 242 L 853 246 L 847 260 Q 847 264 850 264 L 854 264 L 859 259 Q 858 256 861 257 L 877 229 L 880 217 L 880 215 L 879 204 L 874 200 Z M 909 209 L 903 213 L 894 223 L 872 255 L 865 261 L 858 269 L 858 272 L 862 273 L 865 273 L 874 268 L 890 255 L 909 235 Q 908 232 911 233 L 917 222 Q 918 215 916 212 Q 914 208 909 209 Z M 746 245 L 742 246 L 740 251 L 741 256 L 747 260 L 761 267 L 793 280 Q 796 281 797 279 L 796 274 Q 787 263 776 256 L 759 247 Q 754 244 746 245 Z M 915 251 L 908 254 L 886 271 L 875 277 L 866 280 L 866 282 L 865 285 L 868 286 L 884 284 L 898 280 L 912 273 L 919 267 L 924 257 L 923 254 Q 922 250 915 251 Z M 149 258 L 148 259 L 139 259 Q 136 260 137 266 L 141 268 L 156 272 L 172 282 L 179 290 L 219 349 L 219 351 L 275 436 L 279 447 L 279 535 L 278 536 L 278 562 L 277 563 L 276 578 L 272 587 L 264 593 L 252 596 L 245 596 L 242 598 L 240 599 L 240 604 L 245 606 L 276 605 L 277 604 L 307 604 L 308 605 L 358 606 Q 361 605 360 599 L 355 596 L 346 596 L 333 592 Q 325 587 323 577 Q 325 571 322 570 L 322 541 L 321 540 L 322 448 L 325 435 L 379 353 L 384 343 L 421 290 L 438 275 L 451 269 L 459 268 L 463 266 Q 465 267 464 261 L 461 258 L 359 258 L 355 259 Q 352 260 353 266 L 355 267 Q 359 266 361 268 L 375 269 L 385 274 L 389 281 L 389 291 L 386 300 L 349 366 L 344 372 L 318 416 Q 318 420 313 419 L 304 408 L 299 398 L 244 311 Q 240 299 233 291 L 230 282 L 231 274 L 239 268 L 255 267 Q 257 266 256 262 L 254 259 L 153 259 L 149 258 Z M 825 266 L 815 271 L 806 278 L 801 293 L 802 306 L 805 312 Q 812 323 828 325 Q 840 325 848 320 Q 857 314 860 303 L 860 290 L 853 275 Q 847 269 837 266 L 825 266 Z M 752 285 L 743 288 L 739 293 L 740 298 L 748 301 L 766 301 L 775 299 L 790 299 L 795 297 L 796 293 Q 779 283 752 285 Z M 913 286 L 895 290 L 869 291 Q 865 292 866 296 L 872 300 L 896 305 L 910 305 L 924 301 L 927 297 L 927 292 L 923 287 L 913 286 Z M 785 305 L 769 311 L 766 311 L 749 322 Q 742 328 738 337 Q 736 345 742 346 L 749 345 L 762 335 L 766 330 Q 768 331 767 328 L 784 317 L 794 313 L 797 310 L 796 307 L 795 305 L 785 305 Z M 869 306 L 867 307 Q 864 308 864 312 Q 877 325 894 335 L 908 341 L 917 343 L 924 342 Q 927 340 925 334 L 916 325 L 878 311 L 869 306 Z M 798 319 L 790 324 L 788 327 L 785 328 L 771 340 Q 756 352 749 373 L 750 377 L 756 380 L 764 377 L 777 362 L 795 336 L 798 334 Q 799 328 804 325 L 803 321 Q 802 318 798 319 Z M 860 320 L 856 324 L 863 339 L 874 354 L 896 373 L 912 381 Q 918 382 922 380 L 924 376 L 922 370 Q 923 367 920 368 L 917 362 Q 893 349 874 331 Q 871 332 872 329 L 871 329 L 862 320 L 860 320 Z M 813 329 L 802 342 L 794 365 L 794 370 L 796 376 Q 797 380 805 379 L 810 372 L 813 354 L 818 338 L 818 331 Q 817 328 813 329 Z M 845 329 L 842 332 L 842 337 L 845 346 L 845 350 L 853 368 L 858 375 L 860 378 L 869 383 L 875 382 L 876 380 Q 877 373 874 371 Q 859 354 850 332 Q 849 328 845 329 Z M 833 332 L 831 333 L 828 336 L 824 352 L 824 365 L 827 376 L 834 381 L 837 380 L 839 378 L 841 372 L 841 358 L 839 351 L 839 345 L 835 334 Q 836 331 833 332 Z M 497 373 L 496 374 L 483 374 L 477 376 L 472 376 L 456 381 L 440 389 L 427 398 Q 410 412 398 432 L 387 459 L 386 466 L 383 473 L 382 486 L 381 487 L 381 511 L 382 512 L 382 521 L 384 530 L 394 559 Q 399 570 408 579 L 419 589 L 438 601 L 456 608 L 472 611 L 500 611 L 519 607 L 530 603 L 552 589 Q 560 582 565 571 Q 566 565 563 564 L 555 568 L 541 581 L 529 587 L 512 591 L 492 591 L 481 589 L 466 584 L 459 580 L 442 563 L 432 539 L 429 523 L 429 516 L 428 515 L 428 487 L 431 486 L 449 484 L 453 482 L 460 482 L 466 480 L 486 478 L 514 472 L 529 467 L 551 454 Q 560 446 564 434 L 563 418 L 557 405 L 566 401 Q 574 399 578 402 L 582 408 L 585 419 L 585 464 L 584 465 L 583 516 L 582 517 L 582 559 Q 585 560 583 567 L 586 581 L 592 593 L 607 606 L 621 612 L 632 613 L 633 614 L 651 614 L 665 611 L 678 605 L 693 594 L 706 578 L 720 551 L 732 516 L 734 517 L 733 631 L 732 632 L 732 644 L 731 645 L 731 657 L 731 659 L 730 661 L 730 671 L 729 672 L 728 687 L 724 706 Q 720 723 710 735 Q 702 745 691 751 L 684 754 L 670 755 L 669 756 L 653 754 L 640 747 L 628 735 Q 624 722 615 714 Q 612 709 606 708 L 601 708 L 594 711 Q 586 715 585 726 L 585 733 L 587 740 L 591 747 L 609 762 L 625 769 L 638 771 L 643 773 L 667 773 L 692 768 L 707 762 L 724 750 Q 738 738 748 721 L 758 699 L 765 672 L 765 666 L 767 659 L 767 647 L 768 646 L 768 633 L 769 632 L 770 576 L 771 575 L 771 554 L 773 544 L 774 483 L 775 482 L 774 479 L 775 478 L 775 455 L 776 454 L 776 433 L 777 432 L 778 406 L 781 389 L 780 384 L 777 381 L 764 383 L 757 386 L 753 386 L 736 391 L 734 393 L 734 430 L 733 431 L 733 444 L 731 450 L 731 457 L 728 470 L 728 475 L 723 498 L 714 526 L 710 532 L 703 549 L 695 563 L 684 576 L 674 585 L 659 591 L 642 591 L 635 588 Q 629 583 626 575 L 624 567 L 623 547 L 622 546 L 622 509 L 623 508 L 625 442 L 626 441 L 626 413 Q 624 411 625 406 Q 622 392 614 384 Q 610 378 603 377 L 588 377 L 576 380 L 569 383 L 553 394 Q 549 395 550 393 L 539 383 L 526 377 L 513 374 L 497 373 Z M 824 386 Q 804 389 793 400 L 782 412 L 783 415 L 787 417 L 805 411 Q 811 410 815 412 L 818 416 L 820 424 L 819 490 L 818 491 L 817 541 L 816 542 L 816 578 L 819 591 L 826 603 Q 833 612 847 614 L 865 614 L 878 610 L 888 604 L 902 592 L 917 573 Q 920 570 919 564 Q 918 561 914 562 L 907 570 L 890 585 L 877 591 Q 869 592 865 589 L 858 581 L 856 571 L 856 535 L 857 534 L 858 476 L 859 475 L 860 449 L 860 447 L 860 408 L 858 400 L 855 395 Q 847 383 824 386 Z " /><path fill="rgb(0,0,0)" stroke="rgb(0,0,0)" stroke-width="1" opacity="0" d="M 484.5 387 L 498.5 387 L 506.5 389 L 518 398.5 L 523 408.5 L 524 425.5 Q 521.4 441.9 510.5 450 L 500.5 456 L 479.5 463 L 456.5 467 L 449.5 467 L 443.5 469 L 436.5 469 L 429.5 471 L 429 464.5 L 430 463.5 L 430 455.5 L 432 449.5 L 432 444.5 L 438 425.5 Q 445.5 409 458.5 398 Q 468.8 389.8 484.5 387 Z " /><path fill="rgb(201,100,96)" stroke="rgb(201,100,96)" stroke-width="1" opacity="0.7137254901960784" d="M 831.5 196 L 836.5 196 L 841 200.5 L 845 215.5 L 845 233.5 L 841 253.5 L 838.5 258 L 834.5 259 L 832 256.5 Q 833.2 251.8 831 250.5 L 831 233.5 L 830 232.5 L 829 220.5 L 827 215.5 L 827 213.5 L 827 200.5 L 831.5 196 Z M 831 201 L 830 206 L 831 206 L 831 201 Z M 838 204 L 838 207 L 839 207 Q 840 203 838 204 Z M 831 207 L 830 215 L 831 215 L 831 207 Z M 838 208 L 838 210 L 840 209 L 838 208 Z M 838 212 L 839 214 L 840 214 L 838 212 Z M 842 223 L 841 226 L 842 226 L 842 223 Z " /><path fill="rgb(201,100,96)" stroke="rgb(201,100,96)" stroke-width="1" opacity="0.7137254901960784" d="M 749.5 200 L 754.5 200 L 760.5 202 L 771 209.5 Q 770.3 211.8 772.5 211 L 781.5 220 L 783 220 L 791.5 232 Q 793.8 231.3 793 233.5 Q 804.5 244.5 807 264.5 L 806 267 L 801 267 L 801 265.5 L 753 219.5 L 747 211.5 L 746 202.5 L 749.5 200 Z M 749 203 L 749 210 L 756 219 L 765 226 L 769 231 Q 771 230 770 233 L 787 246 L 788 248 L 789 245 Q 792 247 788 249 L 796 255 L 797 253 Q 796 250 799 251 L 799 253 Q 796 252 797 255 L 797 256 Q 800 257 801 254 L 792 236 L 791 236 L 790 233 L 788 234 L 788 233 Q 789 230 786 231 L 786 230 L 785 228 Q 783 223 781 227 L 778 227 L 781 226 L 782 225 L 774 216 Q 771 217 772 214 L 770 214 L 770 213 L 766 210 L 764 211 L 765 208 L 756 203 L 749 203 Z M 802 254 L 799 257 L 803 262 L 803 259 Q 799 257 802 256 L 802 254 Z " /><path fill="rgb(201,100,96)" stroke="rgb(201,100,96)" stroke-width="1" opacity="0.7137254901960784" d="M 794.5 200 Q 803.5 201 807 207.5 L 813 216.5 L 820 233.5 L 823 249.5 L 823 258.5 L 820.5 261 L 817.5 260 Q 815.3 260.8 816 258.5 Q 807 233 792 213.5 L 791 203.5 L 792 201 L 794.5 200 Z M 795 204 L 793 206 L 794 210 Q 797 211 795 213 L 801 223 L 803 222 Q 805 223 803 225 L 804 228 Q 805 230 807 228 L 808 229 L 806 229 L 808 233 L 809 230 L 809 232 L 810 232 Q 811 227 808 227 L 809 225 L 807 222 L 808 220 L 810 223 L 811 219 Q 810 216 809 218 L 807 218 L 809 217 L 808 214 L 806 213 Q 807 215 805 214 L 806 212 L 805 209 L 799 204 L 795 204 Z M 812 221 L 812 224 L 810 224 L 811 226 L 810 228 Q 813 229 812 235 L 812 237 Q 811 240 814 239 L 815 240 L 814 238 Q 813 235 816 236 L 815 229 L 814 229 L 815 233 L 815 234 L 812 229 L 814 228 L 812 221 Z M 816 240 L 814 244 Q 813 246 816 245 L 816 240 Z M 818 240 L 817 243 L 818 243 L 818 240 Z " /><path fill="rgb(201,100,96)" stroke="rgb(201,100,96)" stroke-width="1" opacity="0.7137254901960784" d="M 870.5 201 Q 876.5 199.5 878 202.5 L 880 208.5 L 880 214.5 Q 877.5 216 879 221.5 L 873 236.5 L 863 251.5 L 861 257 Q 858.3 255.9 859 258.5 Q 856.8 263.8 849.5 264 Q 846.5 263.5 847 259.5 L 854 242.5 L 861 213.5 Q 863.9 205.4 870.5 201 Z " /><path fill="rgb(201,100,96)" stroke="rgb(201,100,96)" stroke-width="1" opacity="0.7137254901960784" d="M 796.5 205 Q 799.3 206.3 797 207.5 L 796.5 209 L 796.5 205 Z " /><path fill="rgb(201,100,96)" stroke="rgb(201,100,96)" stroke-width="1" opacity="0.7137254901960784" d="M 909.5 209 L 915 210 Q 917.7 212.6 917 219.5 L 913 229.5 L 896.5 248 Q 894.3 247.3 895 249.5 L 892 251 L 889.5 255 L 871.5 269 L 864.5 273 L 861.5 273 L 859 272.5 L 858 268.5 L 861.5 264 Q 863.8 264.8 863 262.5 L 873 253.5 Q 879.9 240.4 890 230.5 L 894 222.5 L 902.5 213 L 909.5 209 Z " /><path fill="rgb(201,100,96)" stroke="rgb(201,100,96)" stroke-width="1" opacity="0.7137254901960784" d="M 802.5 210 L 803.5 212 L 802.5 210 Z " /><path fill="rgb(201,100,96)" stroke="rgb(201,100,96)" stroke-width="1" opacity="0.7137254901960784" d="M 805.5 217 L 806 219.5 L 805 219.5 L 805.5 217 Z " /><path fill="rgb(201,100,96)" stroke="rgb(201,100,96)" stroke-width="1" opacity="0.7137254901960784" d="M 783.5 239 L 784 241 L 782 240.5 L 783.5 239 Z " /><path fill="rgb(201,100,96)" stroke="rgb(201,100,96)" stroke-width="1" opacity="0.7137254901960784" d="M 793.5 242 L 794.5 244 L 793.5 242 Z " /><path fill="rgb(201,100,96)" stroke="rgb(201,100,96)" stroke-width="1" opacity="0.7137254901960784" d="M 746.5 245 L 750.5 246 L 752.5 246 L 760.5 248 L 788 265 L 789.5 268 L 793 270.5 L 794.5 273 Q 796.8 272.3 796 274.5 L 797 279 L 792.5 280 L 774.5 273 L 768.5 269 L 758.5 266 L 743 258 Q 740.3 255.4 741 248.5 L 746.5 245 Z M 746 248 Q 743 248 743 253 L 749 258 L 767 267 L 791 276 Q 794 277 793 275 L 771 256 L 759 250 L 746 248 Z " /><path fill="rgb(201,100,96)" stroke="rgb(201,100,96)" stroke-width="1" opacity="0.7137254901960784" d="M 915.5 251 Q 921.8 249.8 923 253.5 Q 924 260.5 921 263.5 L 911.5 273 Q 893.9 283.4 868.5 286 L 865 284.5 L 867.5 279 L 870.5 279 L 888 270 Q 886.9 267.3 889.5 268 Q 900.2 257.2 915.5 251 Z " /><path fill="rgb(201,100,96)" stroke="rgb(201,100,96)" stroke-width="1" opacity="0.7137254901960784" d="M 437.5 258 Q 445.4 260.6 457.5 259 L 459.5 259 Q 463.9 257.5 463 260.5 L 464 264.5 L 461.5 267 L 452.5 268 L 444.5 272 L 443 271.5 L 442.5 273 L 441 272.5 Q 441.8 274.8 439.5 274 L 433 277 Q 434.1 279.7 431.5 279 L 428 281.5 L 426.5 284 L 423 286.5 L 420 292 L 418 292 L 418 295 Q 415.3 293.9 416 296.5 L 411.5 303 L 409 304.5 Q 411.3 305.8 408.5 307 Q 406.3 306.3 407 308.5 L 406 311 L 404 311 L 404 314 Q 401.3 312.9 402 315.5 L 389 334.5 L 389 336.5 L 382 344.5 L 372 363 Q 369.3 361.9 370 364.5 L 366 372 L 364 372 L 364 375 Q 361.3 373.9 362 376.5 L 359 380.5 L 359 383 Q 356 381.8 357 385.5 L 346 403 Q 343.3 401.9 344 404.5 L 337 418 Q 334 416.8 335 420.5 L 334 423 L 332 423 Q 333.1 425.7 330.5 425 L 329.5 428 Q 326.9 427.2 328 430.5 L 324 436.5 L 321 449.5 L 322 454.5 L 321 463.5 L 322 468.5 L 322 470.5 L 322 479.5 L 320 481.5 L 321 482.5 L 321 491.5 L 320 494.5 L 321 495.5 L 321 549.5 L 320 552 L 322 552.5 L 322 556.5 L 321 559.5 L 322 564.5 L 322 568.5 L 323 572.5 L 322 574.5 L 326 587 Q 328.7 585.9 328 588.5 L 332 591 L 332.5 593 Q 334 590.5 335.5 594 L 337.5 595 Q 339 592.5 340.5 596 L 344.5 595 L 349.5 597 L 352.5 596 L 356.5 598 L 360 599.5 Q 361 604 358.5 605 L 354.5 606 L 349.5 605 L 347.5 605 L 343.5 606 L 341.5 606 L 338 606 Q 339.3 603 335.5 604 L 334.5 605 L 325.5 605 L 323.5 605 L 319.5 604 Q 318.3 606.3 313.5 605 L 308.5 603 Q 307 605.5 301.5 604 L 299.5 604 L 293.5 603 L 290.5 604 L 288.5 603 L 287.5 604 L 270.5 604 L 268.5 605 L 266.5 604 L 264.5 605 L 262.5 605 L 253.5 604 L 252.5 605 L 242.5 605 Q 239 603.7 240 599 L 246.5 596 L 250.5 597 L 253.5 595 L 255.5 595 L 257.5 596 L 261 595 Q 259.9 592.3 262.5 593 L 264 593.5 Q 263.3 591.3 265.5 592 L 270 590 L 271.5 587 Q 273.8 587.8 273 585.5 L 276 580.5 L 276 576.5 L 278 572.5 L 277 570.5 L 278 567.5 L 278 565.5 L 279 559.5 L 278 557.5 L 279 554.5 L 278 550.5 L 279 548.5 L 278 543.5 L 279 542.5 Q 277.3 534.3 280 530.5 L 279 525.5 L 279 521.5 L 280 516.5 L 279 514.5 Q 281.2 513.3 280 508.5 L 280 506.5 Q 281.5 497 279 491.5 L 280 488.5 L 279 476.5 L 280 473.5 L 280 471.5 L 279 467.5 L 280 466.5 L 280 458.5 L 279 456.5 L 280 453.5 L 279 451.5 L 280 449.5 L 279 446.5 L 278 444.5 L 278 442.5 L 277 440.5 L 277.5 439 Q 274.9 439.8 276 436.5 L 270 426 L 268 426 Q 269.5 422.2 266.5 423 Q 263.8 421.8 266 420.5 L 262 416.5 L 262 414.5 L 254 403.5 L 253 399 Q 250.3 400.1 251 397.5 L 237 377.5 L 236 373 L 234 373 L 234 370 Q 231 371.3 232 367.5 L 223 356.5 L 219 347.5 L 210 336.5 L 208 331.5 L 199 319.5 L 199 317.5 L 191 307.5 L 191 305 Q 188.3 306.1 189 303.5 L 186 298 L 184 298 L 184 295 Q 181.3 296.1 182 293.5 L 177.5 287 L 175 285.5 Q 175.8 283.3 173.5 284 L 165.5 277 L 158 274 L 157.5 272 Q 156 274.5 154.5 271 L 152.5 270 Q 151 272.5 149.5 269 L 138 267 L 137 262.5 L 138 260 L 141.5 259 L 165.5 259 L 167.5 260 L 169.5 260 L 172.5 259 L 176.5 260 L 179.5 259 L 184.5 260 L 186.5 260 L 188.5 259 L 204.5 259 Q 205.7 261.3 210.5 260 L 211.5 259 L 225.5 259 L 228.5 260 L 235.5 259 Q 241 257.5 242.5 260 Q 243.8 257.8 248.5 259 L 250.5 260 L 252.5 260 Q 255.8 258.9 255 261.5 L 256 263.5 L 254 267 L 248.5 268 L 236.5 268 L 233 270.5 L 231 273.5 L 230 274.5 L 230 284.5 L 233 292.5 L 239 300.5 L 239 303 Q 242 301.8 241 305.5 L 246 312.5 L 247 317 Q 249.7 315.9 249 318.5 L 250 322 Q 252.7 320.9 252 323.5 L 259 333.5 L 262 341 L 264 341.5 Q 261.5 343 265 344.5 L 271.5 356 Q 273.8 355.3 273 357.5 L 283 372.5 L 290 387 L 293 388.5 L 294 393 L 296 393 L 296 396 Q 298.7 394.9 298 397.5 L 304 406.5 L 305 411 L 307 411 L 307 414 L 309 414 L 309 416 Q 311.7 414.9 311 417.5 L 312 420 L 314.5 419 Q 315.8 421.3 317 418.5 L 318 414.5 L 324 407.5 L 323.5 406 L 326 404.5 L 326 402 Q 329 403.3 328 399.5 L 344 374.5 L 345 370 L 348 368.5 L 366 335 Q 369 336.3 368 332.5 L 373 324.5 L 373 322 Q 376 323.3 375 319.5 L 379 313.5 L 379 311 L 381 310.5 Q 378.5 309 382 307.5 L 383.5 303 L 385 303.5 L 389 294.5 Q 386.5 293 390 291.5 L 389 288.5 L 389 286.5 L 390 281.5 Q 386.4 279.6 387 275 Q 384.3 276.1 385 273.5 Q 383.8 270.7 382.5 273 L 379.5 270 L 367.5 267 L 363.5 268 Q 361.8 265.2 355.5 267 L 354 265.5 L 353 262.5 L 355.5 259 L 416.5 259 L 418.5 260 L 421.5 259 L 423.5 259 L 436.5 259 L 437.5 258 Z M 451 260 L 450 261 L 357 261 L 355 264 L 362 266 L 376 267 L 385 271 L 391 280 L 390 296 L 383 311 L 364 345 L 319 419 Q 318 423 313 422 L 302 409 L 241 310 L 230 290 L 228 282 Q 227 275 230 272 L 238 266 L 251 266 L 252 265 Q 254 266 253 263 L 252 261 L 141 261 L 139 265 L 155 269 L 173 280 L 184 293 L 210 331 L 277 435 L 281 445 L 282 470 L 281 473 Q 280 477 282 479 L 282 487 L 281 488 L 281 552 L 280 553 L 280 568 L 277 582 L 272 591 L 264 596 L 258 598 L 245 599 L 243 601 L 245 603 L 255 603 L 256 602 L 285 602 L 286 601 L 357 603 L 358 601 L 357 599 L 342 598 L 331 594 Q 325 590 322 582 L 320 572 L 320 558 L 319 557 L 319 470 L 320 469 L 320 446 L 322 437 L 389 331 L 419 289 Q 432 270 459 265 Q 463 267 462 263 L 461 261 L 452 261 L 451 260 Z " /><path fill="rgb(201,100,96)" stroke="rgb(201,100,96)" stroke-width="1" opacity="0.7137254901960784" d="M 826.5 266 L 834.5 266 L 835.5 267 L 837.5 267 L 845.5 270 L 853 275 L 859 286.5 L 860 300.5 Q 858 312.5 849.5 318 L 841.5 323 L 830.5 325 L 819.5 323 L 815.5 321 L 805 311.5 Q 800.6 304.9 801 293.5 L 804 282.5 L 812.5 273 L 826.5 266 Z " /><path fill="rgb(201,100,96)" stroke="rgb(201,100,96)" stroke-width="1" opacity="0.7137254901960784" d="M 786.5 270 L 785.5 272 L 786.5 270 Z " /><path fill="rgb(201,100,96)" stroke="rgb(201,100,96)" stroke-width="1" opacity="0.7137254901960784" d="M 752.5 285 L 755.5 286 L 756.5 285 L 764.5 285 L 769.5 286 L 781.5 287 L 788.5 290 L 792.5 290 L 796 292.5 L 795 297 L 787.5 299 L 772.5 299 L 762.5 301 L 749.5 301 L 742.5 299 L 740 296.5 L 739 292.5 L 740 290 L 752.5 285 Z M 752 288 L 745 290 Q 742 291 742 295 L 748 298 L 764 298 L 775 296 L 786 296 L 788 296 L 793 294 L 792 292 L 770 288 L 752 288 Z " /><path fill="rgb(201,100,96)" stroke="rgb(201,100,96)" stroke-width="1" opacity="0.7137254901960784" d="M 913.5 286 L 921.5 287 L 927 291.5 L 927 296.5 L 922.5 301 L 908.5 305 L 898.5 305 L 875.5 301 L 866 295.5 L 867 292 L 869.5 291 L 895.5 290 L 913.5 286 Z " /><path fill="rgb(201,100,96)" stroke="rgb(201,100,96)" stroke-width="1" opacity="0.7137254901960784" d="M 785.5 305 L 794.5 305 L 796 306.5 L 797 309.5 L 793.5 313 L 776.5 321 L 767 328.5 Q 767.8 330.8 765.5 330 L 755.5 340 L 745.5 346 L 741.5 346 Q 736.5 344.5 738 336.5 L 746 324 L 748 324 Q 746.9 321.3 749.5 322 Q 756.5 315 766.5 311 L 769.5 311 L 777.5 307 L 785.5 305 Z " /><path fill="rgb(201,100,96)" stroke="rgb(201,100,96)" stroke-width="1" opacity="0.7137254901960784" d="M 868.5 306 L 881.5 313 L 908.5 322 Q 919.1 325.4 925 333.5 Q 926.5 340.5 922.5 342 L 911.5 342 L 890.5 333 L 865 312.5 L 864 309.5 L 868.5 306 Z " /><path fill="rgb(201,100,96)" stroke="rgb(201,100,96)" stroke-width="1" opacity="0.7137254901960784" d="M 798.5 319 Q 802.3 318.3 803 320.5 L 804 323.5 L 798 331.5 L 798 334 L 794 336.5 L 782 354.5 L 764.5 376 Q 761.6 380.1 753.5 379 L 750 376.5 L 749 372.5 L 750 368 Q 753 369.3 752 365.5 L 754 360.5 L 765 345 Q 767.7 346.1 767 343.5 Q 780.7 329.2 798.5 319 Z " /><path fill="rgb(201,100,96)" stroke="rgb(201,100,96)" stroke-width="1" opacity="0.7137254901960784" d="M 858.5 321 L 862.5 321 L 879.5 337 L 913.5 360 L 920 366.5 Q 924.1 369.4 923 377.5 Q 920.8 382.3 912.5 381 L 900.5 376 L 887.5 365 L 883 363 Q 884.1 360.3 881.5 361 L 865 341.5 L 857 327.5 L 857 322.5 L 858.5 321 Z " /><path fill="rgb(201,100,96)" stroke="rgb(201,100,96)" stroke-width="1" opacity="0.7137254901960784" d="M 812.5 329 Q 817 328 818 330.5 L 818 336.5 L 816 340.5 L 816 344.5 L 810 366.5 L 810 368.5 Q 809.5 376 804.5 379 Q 797.3 380.3 796 375.5 L 795 373.5 L 795 360.5 L 799 348.5 L 807 334 L 810 332.5 L 812.5 329 Z M 812 334 L 809 338 L 811 338 Q 815 336 812 334 Z M 814 336 L 811 341 L 813 344 L 814 340 L 814 336 Z M 808 340 L 804 346 L 806 346 L 808 343 L 809 347 L 807 346 L 807 348 L 804 350 L 805 348 L 802 350 L 803 352 L 802 351 L 798 362 L 798 373 L 801 376 L 804 376 L 801 375 L 803 373 L 805 375 Q 804 372 807 373 L 807 370 L 808 367 L 807 364 L 809 364 L 812 345 L 810 343 L 810 342 L 808 340 Z " /><path fill="rgb(201,100,96)" stroke="rgb(201,100,96)" stroke-width="1" opacity="0.7137254901960784" d="M 846.5 329 L 850 331.5 L 849.5 333 Q 852.1 332.2 851 335.5 Q 857.5 350 867 361.5 L 867 364 Q 869.7 362.9 869 365.5 L 875 372.5 L 876 379.5 L 875 382 L 869.5 383 L 860 377.5 L 847 354.5 L 843 341.5 L 842 332.5 L 843 330 L 846.5 329 Z M 856 354 L 854 356 L 856 357 L 856 354 Z M 858 358 L 857 361 L 858 361 L 858 358 Z M 857 365 Q 856 368 859 367 Q 860 364 857 365 Z M 868 367 L 867 370 L 865 369 L 863 373 L 861 373 Q 860 375 864 374 L 866 377 L 869 375 L 868 367 Z M 859 369 L 859 371 L 861 370 L 859 369 Z M 872 376 L 871 380 L 873 379 L 872 376 Z " /><path fill="rgb(201,100,96)" stroke="rgb(201,100,96)" stroke-width="1" opacity="0.7137254901960784" d="M 832.5 332 L 836 334.5 L 840 352.5 L 841 370.5 L 836.5 380 Q 829.3 381.3 828 376.5 L 825 370.5 L 824 355.5 L 825 352.5 L 826 342.5 Q 828.8 340.8 828 335.5 L 830.5 333 L 832.5 332 Z M 833 335 L 830 339 L 827 356 L 828 371 L 830 375 Q 831 378 836 377 L 838 370 L 837 353 L 833 335 Z " /><path fill="rgb(201,100,96)" stroke="rgb(201,100,96)" stroke-width="1" opacity="0.7137254901960784" d="M 809.5 344 L 811 346.5 L 810 346.5 L 809.5 344 Z " /><path fill="rgb(201,100,96)" stroke="rgb(201,100,96)" stroke-width="1" opacity="0.7137254901960784" d="M 809.5 348 L 810 350 L 808 349.5 L 809.5 348 Z " /><path fill="rgb(201,100,96)" stroke="rgb(201,100,96)" stroke-width="1" opacity="0.7137254901960784" d="M 806.5 357 L 807 359.5 L 806 359.5 L 806.5 357 Z " /><path fill="rgb(201,100,96)" stroke="rgb(201,100,96)" stroke-width="1" opacity="0.7137254901960784" d="M 484.5 374 L 486.5 374 L 490.5 375 L 491.5 374 L 510.5 374 L 523.5 378 L 525.5 378 L 537 382 L 537.5 384 L 539 383.5 L 540.5 386 L 547 390.5 L 551 396.5 L 541.5 388 L 533.5 383 L 514.5 377 L 509.5 376 L 485.5 376 L 466.5 380 Q 452 384 440.5 391 Q 424.8 400.8 413 414.5 Q 397.4 432.9 389 458.5 L 384 484.5 L 384 513.5 L 385 514.5 L 385 521.5 L 387 531.5 L 393 550.5 Q 401 569 414.5 582 Q 427.7 594.8 446.5 602 L 468.5 608 L 494.5 609 L 515.5 605 L 533.5 598 Q 547.5 591 557 579.5 L 562 570.5 L 562 567 L 558.5 568 L 536.5 586 L 525.5 591 L 510.5 594 L 492.5 594 L 477.5 591 L 466.5 587 Q 453.5 581 445 570.5 Q 433 555 428 532.5 L 426 514.5 L 425 513.5 L 425 487.5 L 427.5 484 L 438.5 482 L 446.5 482 L 452.5 480 L 459.5 480 L 478.5 476 L 484.5 476 L 489.5 474 L 511.5 470 L 535.5 461 Q 547.8 454.8 556 444.5 Q 563 437 561 420.5 L 555 404.5 L 556.5 404 L 561 412.5 L 560 413.5 L 562 417.5 L 564 425.5 L 564 427.5 L 563 435.5 L 561 437.5 Q 563.5 439 560 440.5 L 556.5 447 Q 554.3 446.3 555 448.5 L 549 453.5 Q 549.8 455.8 547.5 455 L 545 456 Q 546.3 459 542.5 458 L 535.5 463 L 534 462.5 Q 534.8 464.8 532.5 464 L 525.5 468 L 508.5 473 L 506.5 473 L 499.5 475 L 497.5 475 L 495.5 476 L 493.5 476 L 470.5 480 L 464.5 480 L 458.5 482 L 450.5 482 L 446.5 484 L 444.5 484 L 440.5 485 L 438.5 485 L 428 486 Q 428.8 489.1 426 488.5 L 426 500.5 L 428 507.5 L 427 509.5 L 427 511.5 L 428 513.5 L 427 515.5 L 429 519.5 L 430 525.5 L 430 527.5 L 435 549.5 L 443 563.5 L 443 566 Q 445.7 564.9 445 567.5 L 455 577.5 L 455 579 L 466.5 585 L 480.5 590 L 482.5 589 L 486.5 591 L 490.5 591 L 494.5 592 L 496.5 591 L 498.5 591 L 504.5 592 L 508.5 592 L 519.5 589 L 525.5 589 L 545 579 L 547.5 575 L 552 571.5 Q 551.3 569.3 553.5 570 L 561.5 564 L 564 565 L 565 568.5 L 563 571.5 L 563 573.5 L 561 576.5 Q 558.3 577.6 559 581 L 556 582.5 L 554.5 585 L 551.5 587 L 548.5 591 L 545 592 Q 546.1 594.7 543.5 594 L 530.5 602 Q 529 599.5 527.5 603 L 509.5 609 L 496.5 610 L 495.5 611 L 479.5 611 L 477.5 611 L 467.5 609 L 465.5 609 L 463.5 608 L 461.5 609 L 452 607 L 451.5 605 L 449.5 606 L 431.5 597 L 419.5 588 L 416 587 L 416 585 Q 413.3 586.1 414 583.5 L 410 578 L 405 574.5 L 404.5 572 L 403 572.5 L 401.5 569 Q 398.9 569.8 400 566.5 L 399 564 Q 396 565.3 397 561.5 L 392 553.5 L 392 550.5 L 388 542.5 L 386 530.5 L 384 527.5 Q 386.5 526 383 524.5 L 384 520.5 Q 381 518.5 382 512.5 L 382 510.5 L 381 508.5 L 381 506.5 L 382 504.5 L 381 502.5 L 382 498.5 L 381 495.5 L 382 493.5 L 382 489.5 L 383 487.5 Q 380.8 486.3 382 481.5 L 384 477.5 L 383 475.5 L 388 459.5 L 387 458.5 L 389 454.5 L 390 449.5 L 392 447.5 L 395 437.5 L 399 430 L 401 429.5 L 400.5 428 L 403 426.5 L 403 424 Q 405.7 425.1 405 422.5 L 408 417 Q 410.7 418.1 410 415.5 L 411 413 Q 413.7 414.1 413 411.5 L 418 407.5 L 419.5 405 Q 421.8 405.8 421 403.5 L 424 402 Q 422.8 399 426.5 400 L 428 397 L 433 394.5 Q 432.2 391.9 435.5 393 L 438 392 Q 436.8 389 440.5 390 Q 443.6 386.3 449 386 Q 447.8 383 451.5 384 L 464.5 378 L 466.5 379 L 468.5 377 Q 473.3 378.3 474.5 376 L 476.5 376 Q 482.2 376.7 484.5 374 Z " /><path fill="rgb(201,100,96)" stroke="rgb(201,100,96)" stroke-width="1" opacity="0.7137254901960784" d="M 589.5 377 Q 608.8 375.7 616 386.5 L 619 390.5 L 619 393 Q 622 391.8 621 395.5 L 624 403.5 L 625 414.5 L 626 415.5 L 626 417.5 L 625 421.5 L 626 425.5 L 625 428.5 L 626 432.5 L 625 437.5 Q 626.7 443.7 624 445.5 L 625 450.5 L 625 454.5 L 624 456.5 L 624 468.5 L 623 469.5 L 624 471.5 L 624 473.5 L 623 488.5 L 622 489.5 Q 624.8 491.2 623 497.5 L 623 499.5 L 622 512.5 L 621 513.5 L 622 518.5 L 621 525.5 L 622 527.5 L 621 529.5 L 622 532.5 L 621 534.5 L 622 538.5 L 622 540.5 Q 623.3 545.3 621 546.5 L 623 547.5 L 623 549.5 L 622 551.5 Q 624.8 553.3 623 559.5 L 623 561.5 L 624 563.5 L 624 565.5 L 627 578.5 L 632.5 587 L 642.5 592 L 644.5 591 L 646.5 592 L 648 591.5 L 647.5 593 Q 651.8 593.8 652.5 591 L 654.5 591 L 660.5 591 Q 661.9 588.4 666.5 589 L 683 578 L 688 570 L 691 568.5 Q 692.3 562.8 697 560.5 L 713 529.5 L 726 487.5 L 726 485.5 L 728 476.5 L 728 474.5 L 730 465.5 L 730 458.5 L 732 452.5 L 732 450.5 L 733 436.5 L 734 435.5 L 734 422.5 L 735 421.5 L 734 416.5 L 734 414.5 L 735 402.5 L 734 401.5 L 734 393.5 L 738.5 390 Q 745.3 390.3 748.5 387 L 763.5 385 L 765.5 383 L 768.5 384 Q 770.5 380 778.5 382 L 781 386.5 L 779 394.5 L 779 396.5 L 777 412.5 L 778 414.5 L 777 417.5 L 776 424.5 L 776 426.5 L 777 428.5 L 775 433.5 Q 777.3 434.8 776 439.5 L 776 441.5 L 775 444.5 L 775 446.5 L 775 464.5 L 774 465.5 L 775 469.5 L 774 473.5 L 774 475.5 L 773 481.5 Q 775.5 483 774 488.5 L 774 490.5 L 773 495.5 L 773 497.5 L 774 502.5 L 773 503.5 L 773 512.5 L 774 514.5 L 773 515.5 L 772 534.5 L 773 536.5 L 772 539.5 L 770 588.5 L 769 589.5 L 770 592.5 L 769 593.5 L 769 612.5 L 768 614.5 L 769 615.5 L 769 623.5 L 768 626.5 L 767 653.5 L 764 669.5 L 764 671.5 L 763 679.5 L 761 683.5 L 761 685.5 L 760 691.5 L 756 699.5 L 756 701.5 L 754 704.5 L 754 706.5 L 742.5 728 L 741 728.5 L 742 729.5 L 737 734.5 L 735.5 737 L 732.5 739 L 726.5 747 L 724 747 L 724 749 Q 721.3 747.9 722 750.5 L 717 753.5 L 717 755 Q 713.3 753.5 714 756.5 L 710.5 758 Q 707.9 757.3 709 760 L 706 760 L 706 762 L 703.5 762 L 693.5 767 L 676.5 771 L 674.5 771 L 669.5 772 L 667.5 772 L 664.5 773 L 661.5 772 L 660.5 773 L 650.5 773 L 647.5 772 L 645.5 773 L 642.5 772 L 629.5 770 Q 625.2 766.3 617.5 766 L 604 759 Q 605.1 756.3 602.5 757 L 599 754.5 L 594.5 749 Q 592.3 749.8 593 747.5 L 588 741.5 Q 589 736.5 586 735.5 L 586 724.5 L 588 717 Q 591 718.3 590 714.5 L 594 713 Q 592.8 710 596.5 711 L 598.5 709 L 603.5 708 L 607.5 710 Q 609 707.5 610.5 711 L 618 717.5 L 622 723.5 L 622 726 Q 624.7 724.9 624 727.5 L 626 733 Q 628.7 731.9 628 734.5 L 634 741.5 L 634.5 744 L 635.5 743 L 643.5 751 Q 645 748.5 646.5 752 L 649.5 754 L 651.5 754 L 653.5 755 L 655.5 755 L 659.5 756 L 661.5 756 L 672.5 756 L 674.5 755 L 676.5 756 L 691 752 L 691.5 750 Q 693 752.5 694.5 749 Q 696.8 749.8 696 747.5 L 699 746.5 L 701.5 743 L 704 743 Q 702.3 738.9 706.5 740 L 706.5 738 Q 708.8 738.8 708 736.5 L 711 734.5 L 710.5 733 L 713 731.5 L 721 716.5 L 727 694.5 L 727 688.5 L 729 684.5 L 729 682.5 L 730 677.5 L 730 675.5 L 731 671.5 L 730 668.5 L 731 666.5 L 731 664.5 L 730 661.5 Q 732.7 659.2 732 653.5 L 731 650.5 L 732 648.5 L 732 646.5 Q 730.8 641.8 733 640.5 L 732 638.5 L 733 635.5 L 732 633.5 L 734 622.5 L 734 620.5 L 733 616.5 L 733 610.5 L 734 607.5 L 734 555.5 L 735 552.5 L 734 549.5 L 734 539.5 L 734 527.5 L 735 526.5 L 734 524.5 L 734 522.5 L 735 520.5 L 734 519.5 L 733.5 511 L 720 549.5 L 710 567.5 L 708 574 Q 705.3 572.9 706 575.5 Q 702.9 583.9 696.5 589 Q 694.3 588.3 695 590.5 L 678.5 604 L 659.5 612 L 657.5 612 L 645.5 614 L 641.5 614 L 638.5 613 L 636.5 614 L 635.5 613 L 626.5 613 L 618.5 611 L 602 603 Q 603.1 600.3 600.5 601 L 596.5 596 Q 593.9 596.7 595 594 L 593 594 L 593 591.5 L 586 579.5 L 582 551.5 L 582 549.5 L 583 540.5 L 582 539.5 L 582 524.5 L 583 523.5 L 583 507.5 L 584 506.5 L 583 503.5 L 583 501.5 Q 585.6 493.6 584 481.5 L 585 480.5 L 584 478.5 L 584 476.5 L 585 474.5 L 584 470.5 L 585 469.5 L 585 448.5 L 586 447.5 L 585 442.5 L 586 440.5 L 585 437.5 L 585 435.5 L 586 431.5 Q 583.5 430 585 424.5 L 586 422.5 L 583 408.5 L 579 402 L 574.5 400 L 572.5 401 L 568.5 400 L 565.5 401 L 556.5 403 L 556.5 402 L 565.5 399 L 575.5 399 L 582 403.5 L 587 416.5 L 587 431.5 L 588 432.5 L 587 433.5 L 587 467.5 L 586 468.5 L 586 489.5 L 585 490.5 L 585 518.5 L 584 519.5 L 584 556.5 L 585 557.5 L 585 566.5 L 590 583.5 Q 594.8 594.2 603.5 601 Q 613 608 626.5 611 L 648.5 612 Q 679.4 606.4 696 586.5 Q 706.6 573.6 714 557.5 L 723 536.5 L 732.5 508 L 735 509 L 736 515.5 L 736 590.5 L 735 591.5 L 734 654.5 L 733 655.5 L 733 669.5 L 732 670.5 L 732 678.5 L 731 679.5 L 729 696.5 L 724 713.5 L 718 726.5 Q 712 738 702.5 746 Q 695 752.5 684.5 756 L 673.5 757 L 672.5 758 L 662.5 758 L 648.5 755 Q 638.4 751.1 632 743.5 Q 622.3 732.3 616 717.5 L 612.5 714 Q 609 710 600.5 711 Q 593.3 712.8 590 718.5 Q 586.4 723.9 588 734.5 Q 592.3 746.7 601.5 754 Q 622.6 771.9 662.5 771 L 663.5 770 L 682.5 768 L 702.5 761 Q 721.9 750.9 735 734.5 Q 746.3 721.8 753 704.5 L 761 678.5 L 765 656.5 L 766 627.5 L 767 626.5 L 767 600.5 L 768 599.5 L 768 571.5 L 769 570.5 L 769 553.5 L 770 552.5 L 770 537.5 L 771 536.5 L 771 489.5 L 772 488.5 L 773 435.5 L 774 434.5 L 774 420.5 L 775 419.5 L 775 408.5 L 776 407.5 L 778 385.5 Q 777.3 383.3 773.5 384 L 744.5 390 L 736 394.5 L 735 443.5 L 734 444.5 L 734 452.5 L 733 453.5 L 731 473.5 L 724 502.5 L 714 530.5 L 705 549.5 Q 695.3 569.3 679.5 583 Q 672 589.5 661.5 593 Q 654 595.5 642.5 594 Q 633.3 592.3 629 585.5 L 624 576.5 L 621 564.5 L 620 540.5 L 619 539.5 L 619 518.5 L 620 517.5 L 620 488.5 L 621 487.5 L 621 466.5 L 622 465.5 L 622 445.5 L 623 444.5 L 623 410.5 L 620 397.5 L 612.5 385 Q 606.1 378.4 592.5 379 L 572.5 384 Q 560.7 388.7 552.5 397 L 552 395.5 L 554.5 392 L 564 388 Q 562.8 385 566.5 386 L 573.5 381 L 589.5 377 Z " /><path fill="rgb(201,100,96)" stroke="rgb(201,100,96)" stroke-width="1" opacity="0.7137254901960784" d="M 481.5 385 L 501.5 385 L 505.5 386 L 518 394.5 Q 527.6 404.9 526 426.5 L 524 435.5 L 520 443.5 L 510.5 453 L 502.5 458 L 480.5 465 L 427.5 473 L 427.5 472 L 429 471.5 L 426 471 L 428 451.5 L 434 429.5 L 443 411.5 L 457.5 396 Q 466.8 387.8 481.5 385 Z M 487 386 L 481 388 L 477 388 L 475 390 L 474 389 L 464 395 Q 460 394 461 397 L 452 403 L 448 409 Q 449 411 447 410 L 447 412 L 443 414 L 434 436 L 429 462 L 430 463 Q 427 462 428 466 L 428 470 L 430 471 L 434 470 L 436 471 L 445 469 L 447 469 L 452 467 L 455 468 L 459 466 L 462 467 L 465 465 Q 470 467 472 464 L 474 465 L 476 464 L 478 464 L 488 461 L 490 461 L 494 459 L 496 459 L 503 455 L 505 455 L 505 453 L 511 451 L 514 447 Q 516 448 515 445 L 518 444 Q 517 440 520 441 L 523 431 L 523 429 L 525 423 L 524 421 L 525 418 L 524 413 L 524 411 L 519 399 L 516 396 L 514 394 L 511 391 Q 508 392 509 390 L 508 390 L 506 389 Q 504 385 503 388 L 497 386 L 493 387 Q 491 385 487 386 Z " /><path fill="rgb(201,100,96)" stroke="rgb(201,100,96)" stroke-width="1" opacity="0.7137254901960784" d="M 824.5 386 Q 846.5 383.5 855 394.5 L 858 400.5 L 860 409.5 L 860 446.5 L 859 447.5 L 857 529.5 L 856 530.5 L 856 572.5 L 860 584.5 L 864.5 589 Q 868.8 592.7 878.5 591 Q 890.7 586.2 899 577.5 L 901 574.5 L 908 568.5 L 913.5 562 Q 918 561 919 563.5 L 919 568.5 L 912 579.5 L 893.5 599 L 874.5 611 L 863.5 614 L 848.5 614 Q 847.3 611.8 842.5 613 L 833.5 609 L 824 599.5 Q 818.9 592.6 817 582.5 Q 818.5 577 816 575.5 L 816 547.5 L 817 546.5 L 819 465.5 L 820 464.5 L 820 421.5 Q 818.9 414.1 813.5 411 L 802.5 411 L 790.5 416 L 784.5 416 L 782 411.5 L 792.5 400 L 804.5 392 L 814.5 388 L 824.5 386 Z M 804 407 L 804 408 L 806 408 L 804 407 Z " /><path fill="rgb(238,136,135)" stroke="rgb(238,136,135)" stroke-width="1" opacity="0.9450980392156862" d="M 830.5 196 L 828.5 199 L 830.5 196 Z " /><path fill="rgb(238,136,135)" stroke="rgb(238,136,135)" stroke-width="1" opacity="0.9450980392156862" d="M 830.5 201 L 831 205.5 L 830 205.5 L 830.5 201 Z " /><path fill="rgb(238,136,135)" stroke="rgb(238,136,135)" stroke-width="1" opacity="0.9450980392156862" d="M 749 203 L 755.5 203 L 765 208 Q 763.9 210.7 766.5 210 L 770 212.5 L 770 214 L 772 214 Q 770.9 216.7 773.5 216 L 786 229.5 L 785.5 231 L 788 231 Q 786.9 233.7 789.5 233 L 798 245.5 L 802 255.5 Q 799.5 257 803 258.5 L 802.5 262 L 799 258.5 Q 801.3 257.3 798.5 256 L 794.5 255 L 787 247.5 Q 787.8 245.3 785.5 246 L 770 232.5 Q 770.8 230.3 768.5 231 L 765 226 L 756 218.5 L 749 209.5 L 749 203 Z M 779 226 L 779 227 L 781 227 L 779 226 Z M 784 239 L 782 241 L 784 241 L 784 239 Z M 797 251 Q 796 254 799 253 Q 800 250 797 251 Z " /><path fill="rgb(238,136,135)" stroke="rgb(238,136,135)" stroke-width="1" opacity="0.9450980392156862" d="M 794.5 204 L 798.5 204 L 805 209 L 813 222.5 L 817 237.5 L 816 237.5 Q 816.7 234.9 814 236 Q 816.7 239 816 245 Q 813.3 246.1 814 243.5 L 815 240.5 L 812 239 L 811.5 241 L 810 238.5 L 812 238.5 L 811 235.5 L 812 230.5 L 810.5 228 L 810 231.5 L 811 233.5 L 810 233.5 L 808.5 230 L 808 232.5 L 808.5 234 L 794 211.5 L 794 209.5 L 793 205.5 L 794.5 204 Z M 797 205 L 797 209 L 797 208 Q 799 206 797 205 Z M 806 212 L 804 214 L 806 214 L 806 212 Z M 806 217 L 805 220 L 806 220 L 806 217 Z M 813 228 L 813 232 L 814 232 Q 815 227 813 228 Z " /><path fill="rgb(238,136,135)" stroke="rgb(238,136,135)" stroke-width="1" opacity="0.9450980392156862" d="M 837.5 204 Q 840.1 203.2 839 206.5 L 838 206.5 L 837.5 204 Z " /><path fill="rgb(238,136,135)" stroke="rgb(238,136,135)" stroke-width="1" opacity="0.9450980392156862" d="M 745.5 205 L 746 207.5 L 745 207.5 L 745.5 205 Z " /><path fill="rgb(238,136,135)" stroke="rgb(238,136,135)" stroke-width="1" opacity="0.9450980392156862" d="M 830.5 207 L 831 214.5 L 830 214.5 L 830.5 207 Z " /><path fill="rgb(238,136,135)" stroke="rgb(238,136,135)" stroke-width="1" opacity="0.9450980392156862" d="M 807.5 208 L 809 210.5 L 808 210.5 L 807.5 208 Z " /><path fill="rgb(238,136,135)" stroke="rgb(238,136,135)" stroke-width="1" opacity="0.9450980392156862" d="M 838 208 L 840 208.5 L 838 209.5 L 838 208 Z " /><path fill="rgb(238,136,135)" stroke="rgb(238,136,135)" stroke-width="1" opacity="0.9450980392156862" d="M 837.5 212 L 840 213.5 L 838.5 214 L 837.5 212 Z " /><path fill="rgb(238,136,135)" stroke="rgb(238,136,135)" stroke-width="1" opacity="0.9450980392156862" d="M 810.5 213 L 811.5 215 L 810.5 213 Z " /><path fill="rgb(238,136,135)" stroke="rgb(238,136,135)" stroke-width="1" opacity="0.9450980392156862" d="M 776.5 214 L 781.5 220 L 776.5 214 Z " /><path fill="rgb(238,136,135)" stroke="rgb(238,136,135)" stroke-width="1" opacity="0.9450980392156862" d="M 783.5 221 L 785.5 224 L 783.5 221 Z " /><path fill="rgb(238,136,135)" stroke="rgb(238,136,135)" stroke-width="1" opacity="0.9450980392156862" d="M 841.5 223 L 842 225.5 L 841 225.5 L 841.5 223 Z " /><path fill="rgb(238,136,135)" stroke="rgb(238,136,135)" stroke-width="1" opacity="0.9450980392156862" d="M 790.5 230 L 791.5 232 L 790.5 230 Z " /><path fill="rgb(238,136,135)" stroke="rgb(238,136,135)" stroke-width="1" opacity="0.9450980392156862" d="M 771.5 237 L 772.5 239 L 771.5 237 Z " /><path fill="rgb(238,136,135)" stroke="rgb(238,136,135)" stroke-width="1" opacity="0.9450980392156862" d="M 905.5 238 L 904.5 240 L 905.5 238 Z " /><path fill="rgb(238,136,135)" stroke="rgb(238,136,135)" stroke-width="1" opacity="0.9450980392156862" d="M 817.5 240 L 818 242.5 L 817 242.5 L 817.5 240 Z " /><path fill="rgb(238,136,135)" stroke="rgb(238,136,135)" stroke-width="1" opacity="0.9450980392156862" d="M 780.5 245 L 781.5 247 L 780.5 245 Z " /><path fill="rgb(238,136,135)" stroke="rgb(238,136,135)" stroke-width="1" opacity="0.9450980392156862" d="M 745.5 248 L 758.5 250 L 770.5 256 L 793 274.5 L 794 276.5 L 792.5 276 L 766.5 267 L 748.5 258 L 743 252.5 Q 742.5 248.5 745.5 248 Z " /><path fill="rgb(238,136,135)" stroke="rgb(238,136,135)" stroke-width="1" opacity="0.9450980392156862" d="M 740.5 250 L 741 252.5 L 740 252.5 L 740.5 250 Z " /><path fill="rgb(238,136,135)" stroke="rgb(238,136,135)" stroke-width="1" opacity="0.9450980392156862" d="M 831.5 251 L 832 253.5 L 831 253.5 L 831.5 251 Z " /><path fill="rgb(238,136,135)" stroke="rgb(238,136,135)" stroke-width="1" opacity="0.9450980392156862" d="M 741.5 254 L 743 256.5 L 741 255.5 L 741.5 254 Z " /><path fill="rgb(238,136,135)" stroke="rgb(238,136,135)" stroke-width="1" opacity="0.9450980392156862" d="M 835.5 254 L 836.5 256 L 835.5 254 Z " /><path fill="rgb(238,136,135)" stroke="rgb(238,136,135)" stroke-width="1" opacity="0.9450980392156862" d="M 907.5 254 L 906.5 256 L 907.5 254 Z " /><path fill="rgb(238,136,135)" stroke="rgb(238,136,135)" stroke-width="1" opacity="0.9450980392156862" d="M 148.5 258 L 152 258.5 L 148.5 259 L 148.5 258 Z " /><path fill="rgb(238,136,135)" stroke="rgb(238,136,135)" stroke-width="1" opacity="0.9450980392156862" d="M 358.5 258 L 437 258.5 L 423.5 259 L 422.5 260 L 419.5 259 L 417.5 260 L 416.5 259 L 358.5 259 L 358.5 258 Z " /><path fill="rgb(238,136,135)" stroke="rgb(238,136,135)" stroke-width="1" opacity="0.9450980392156862" d="M 441.5 258 L 458 258.5 L 441.5 259 L 441.5 258 Z " /><path fill="rgb(238,136,135)" stroke="rgb(238,136,135)" stroke-width="1" opacity="0.9450980392156862" d="M 138.5 259 L 141 259.5 L 138 260 L 137.5 262 L 137 260.5 L 138.5 259 Z " /><path fill="rgb(238,136,135)" stroke="rgb(238,136,135)" stroke-width="1" opacity="0.9450980392156862" d="M 173.5 259 L 177 259.5 L 173.5 260 L 173.5 259 Z " /><path fill="rgb(238,136,135)" stroke="rgb(238,136,135)" stroke-width="1" opacity="0.9450980392156862" d="M 205.5 259 L 211 259.5 L 205.5 260 L 205.5 259 Z " /><path fill="rgb(238,136,135)" stroke="rgb(238,136,135)" stroke-width="1" opacity="0.9450980392156862" d="M 226.5 259 L 229 259.5 L 226.5 260 L 226.5 259 Z " /><path fill="rgb(238,136,135)" stroke="rgb(238,136,135)" stroke-width="1" opacity="0.9450980392156862" d="M 354.5 259 L 354 260.5 L 353.5 262 L 353 260.5 L 354.5 259 Z " /><path fill="rgb(238,136,135)" stroke="rgb(238,136,135)" stroke-width="1" opacity="0.9450980392156862" d="M 450.5 260 L 451.5 261 L 460.5 261 L 462 262.5 Q 463.3 266.7 458.5 265 Q 431.8 269.8 419 288.5 L 389 330.5 L 344 402.5 L 345 404.5 L 343 405.5 L 344 403.5 L 342 404.5 L 325 430.5 L 322 436.5 L 320 445.5 L 320 468.5 L 319 469.5 L 319 556.5 L 320 557.5 L 320 571.5 L 322 581.5 Q 324.5 589.5 330.5 594 L 341.5 598 L 356.5 599 L 358 600.5 L 356.5 603 L 285.5 601 L 284.5 602 L 255.5 602 L 254.5 603 L 244.5 603 L 243 600.5 L 244.5 599 L 257.5 598 L 263.5 596 L 272 591 L 277 581.5 L 280 567.5 L 280 552.5 L 281 551.5 L 281 487.5 L 282 486.5 L 282 478.5 Q 279.8 477.2 281 472.5 L 282 469.5 L 282 452.5 L 281 451.5 L 280 440.5 L 253.5 399 L 253 400.5 L 254 402.5 L 253 402.5 L 252 399.5 L 253 397.5 L 191 302.5 Q 183.3 289.7 172.5 280 L 154.5 269 L 139 265 L 140.5 261 L 251.5 261 L 253 262.5 Q 254.1 265.8 251.5 265 L 250.5 266 L 237.5 266 L 230 271.5 Q 227.3 274.8 228 281.5 L 230 289.5 L 238 304.5 L 269.5 355 L 270.5 353 L 272 355.5 L 270 355.5 L 302 408.5 L 312.5 422 Q 318.3 422.8 319 418.5 L 364 344.5 L 383 310.5 L 389 298.5 L 390 292.5 L 388 292.5 L 389.5 290 L 390.5 292 L 391 279.5 L 384.5 271 L 375.5 267 L 361.5 266 L 355 263.5 L 356.5 261 L 449.5 261 L 450.5 260 Z " /><path fill="rgb(238,136,135)" stroke="rgb(238,136,135)" stroke-width="1" opacity="0.9450980392156862" d="M 255.5 264 L 256 265.5 L 254 266.5 L 255.5 264 Z " /><path fill="rgb(238,136,135)" stroke="rgb(238,136,135)" stroke-width="1" opacity="0.9450980392156862" d="M 353.5 264 L 355 266.5 L 353 265.5 L 353.5 264 Z " /><path fill="rgb(238,136,135)" stroke="rgb(238,136,135)" stroke-width="1" opacity="0.9450980392156862" d="M 788.5 266 L 789.5 268 L 788.5 266 Z " /><path fill="rgb(238,136,135)" stroke="rgb(238,136,135)" stroke-width="1" opacity="0.9450980392156862" d="M 360.5 267 L 363 267.5 L 360.5 268 L 360.5 267 Z " /><path fill="rgb(238,136,135)" stroke="rgb(238,136,135)" stroke-width="1" opacity="0.9450980392156862" d="M 143.5 268 L 146 268.5 L 143.5 269 L 143.5 268 Z " /><path fill="rgb(238,136,135)" stroke="rgb(238,136,135)" stroke-width="1" opacity="0.9450980392156862" d="M 370.5 268 L 373 268.5 L 370.5 269 L 370.5 268 Z " /><path fill="rgb(238,136,135)" stroke="rgb(238,136,135)" stroke-width="1" opacity="0.9450980392156862" d="M 234.5 269 L 233.5 271 L 234.5 269 Z " /><path fill="rgb(238,136,135)" stroke="rgb(238,136,135)" stroke-width="1" opacity="0.9450980392156862" d="M 152.5 270 L 155 271.5 L 153.5 272 L 152.5 270 Z " /><path fill="rgb(238,136,135)" stroke="rgb(238,136,135)" stroke-width="1" opacity="0.9450980392156862" d="M 378.5 270 L 381 271.5 L 379.5 271 L 378.5 270 Z " /><path fill="rgb(238,136,135)" stroke="rgb(238,136,135)" stroke-width="1" opacity="0.9450980392156862" d="M 793.5 271 L 794.5 273 L 793.5 271 Z " /><path fill="rgb(238,136,135)" stroke="rgb(238,136,135)" stroke-width="1" opacity="0.9450980392156862" d="M 814.5 271 L 813.5 273 L 814.5 271 Z " /><path fill="rgb(238,136,135)" stroke="rgb(238,136,135)" stroke-width="1" opacity="0.9450980392156862" d="M 847.5 271 L 848.5 273 L 847.5 271 Z " /><path fill="rgb(238,136,135)" stroke="rgb(238,136,135)" stroke-width="1" opacity="0.9450980392156862" d="M 383.5 272 L 384.5 274 Q 381.7 274.7 383.5 272 Z " /><path fill="rgb(238,136,135)" stroke="rgb(238,136,135)" stroke-width="1" opacity="0.9450980392156862" d="M 159.5 274 L 162 275.5 L 160.5 275 L 159.5 274 Z " /><path fill="rgb(238,136,135)" stroke="rgb(238,136,135)" stroke-width="1" opacity="0.9450980392156862" d="M 230.5 274 L 231 276.5 L 230 276.5 L 230.5 274 Z " /><path fill="rgb(238,136,135)" stroke="rgb(238,136,135)" stroke-width="1" opacity="0.9450980392156862" d="M 436.5 275 L 434.5 278 L 433 277.5 L 436.5 275 Z " /><path fill="rgb(238,136,135)" stroke="rgb(238,136,135)" stroke-width="1" opacity="0.9450980392156862" d="M 164.5 277 L 167 278.5 L 165.5 278 L 164.5 277 Z " /><path fill="rgb(238,136,135)" stroke="rgb(238,136,135)" stroke-width="1" opacity="0.9450980392156862" d="M 431.5 279 L 430.5 281 L 428.5 282 L 429.5 280 L 431.5 279 Z " /><path fill="rgb(238,136,135)" stroke="rgb(238,136,135)" stroke-width="1" opacity="0.9450980392156862" d="M 169.5 280 L 170.5 282 L 169.5 280 Z " /><path fill="rgb(238,136,135)" stroke="rgb(238,136,135)" stroke-width="1" opacity="0.9450980392156862" d="M 389.5 281 L 390 284.5 L 389 284.5 L 389.5 281 Z " /><path fill="rgb(238,136,135)" stroke="rgb(238,136,135)" stroke-width="1" opacity="0.9450980392156862" d="M 230.5 282 L 231 284.5 L 230 284.5 L 230.5 282 Z " /><path fill="rgb(238,136,135)" stroke="rgb(238,136,135)" stroke-width="1" opacity="0.9450980392156862" d="M 425.5 284 L 423.5 287 L 425.5 284 Z " /><path fill="rgb(238,136,135)" stroke="rgb(238,136,135)" stroke-width="1" opacity="0.9450980392156862" d="M 231.5 286 L 233 289.5 L 232 289.5 L 231.5 286 Z " /><path fill="rgb(238,136,135)" stroke="rgb(238,136,135)" stroke-width="1" opacity="0.9450980392156862" d="M 177.5 287 L 178.5 289 L 177.5 287 Z " /><path fill="rgb(238,136,135)" stroke="rgb(238,136,135)" stroke-width="1" opacity="0.9450980392156862" d="M 922.5 287 L 923.5 289 L 922.5 287 Z " /><path fill="rgb(238,136,135)" stroke="rgb(238,136,135)" stroke-width="1" opacity="0.9450980392156862" d="M 742.5 288 L 741.5 290 L 742.5 288 Z " /><path fill="rgb(238,136,135)" stroke="rgb(238,136,135)" stroke-width="1" opacity="0.9450980392156862" d="M 751.5 288 L 769.5 288 L 791.5 292 L 793 293.5 L 787.5 296 L 785.5 296 L 774.5 296 L 763.5 298 L 747.5 298 L 742 294.5 Q 741.5 290.5 744.5 290 L 751.5 288 Z " /><path fill="rgb(238,136,135)" stroke="rgb(238,136,135)" stroke-width="1" opacity="0.9450980392156862" d="M 179.5 290 L 180.5 292 L 179.5 290 Z " /><path fill="rgb(238,136,135)" stroke="rgb(238,136,135)" stroke-width="1" opacity="0.9450980392156862" d="M 233.5 291 L 236 294.5 L 233 292.5 L 233.5 291 Z " /><path fill="rgb(238,136,135)" stroke="rgb(238,136,135)" stroke-width="1" opacity="0.9450980392156862" d="M 388.5 294 L 388 295.5 L 387.5 297 L 387 295.5 L 388.5 294 Z " /><path fill="rgb(238,136,135)" stroke="rgb(238,136,135)" stroke-width="1" opacity="0.9450980392156862" d="M 415.5 297 L 414.5 299 L 415.5 297 Z " /><path fill="rgb(238,136,135)" stroke="rgb(238,136,135)" stroke-width="1" opacity="0.9450980392156862" d="M 185.5 298 L 188 301.5 L 185 299.5 L 185.5 298 Z " /><path fill="rgb(238,136,135)" stroke="rgb(238,136,135)" stroke-width="1" opacity="0.9450980392156862" d="M 386.5 298 L 387 299.5 L 384.5 304 L 384 301.5 L 386.5 298 Z " /><path fill="rgb(238,136,135)" stroke="rgb(238,136,135)" stroke-width="1" opacity="0.9450980392156862" d="M 924.5 299 L 923.5 301 L 924.5 299 Z " /><path fill="rgb(238,136,135)" stroke="rgb(238,136,135)" stroke-width="1" opacity="0.9450980392156862" d="M 763.5 300 L 766 300.5 L 763.5 301 L 763.5 300 Z " /><path fill="rgb(238,136,135)" stroke="rgb(238,136,135)" stroke-width="1" opacity="0.9450980392156862" d="M 410.5 303 L 411 305 L 409 304.5 L 410.5 303 Z " /><path fill="rgb(238,136,135)" stroke="rgb(238,136,135)" stroke-width="1" opacity="0.9450980392156862" d="M 895.5 304 L 898 304.5 L 895.5 305 L 895.5 304 Z " /><path fill="rgb(238,136,135)" stroke="rgb(238,136,135)" stroke-width="1" opacity="0.9450980392156862" d="M 407.5 307 L 408 308.5 L 406 309.5 L 407.5 307 Z " /><path fill="rgb(238,136,135)" stroke="rgb(238,136,135)" stroke-width="1" opacity="0.9450980392156862" d="M 193.5 310 L 194.5 312 L 193.5 310 Z " /><path fill="rgb(238,136,135)" stroke="rgb(238,136,135)" stroke-width="1" opacity="0.9450980392156862" d="M 246.5 314 L 248 316.5 L 247 316.5 L 246.5 314 Z " /><path fill="rgb(238,136,135)" stroke="rgb(238,136,135)" stroke-width="1" opacity="0.9450980392156862" d="M 402.5 314 L 403 315.5 L 396.5 324 L 398 321.5 L 402.5 314 Z " /><path fill="rgb(238,136,135)" stroke="rgb(238,136,135)" stroke-width="1" opacity="0.9450980392156862" d="M 197.5 316 L 198.5 318 L 197.5 316 Z " /><path fill="rgb(238,136,135)" stroke="rgb(238,136,135)" stroke-width="1" opacity="0.9450980392156862" d="M 376.5 316 L 377 317.5 L 375 318.5 L 376.5 316 Z " /><path fill="rgb(238,136,135)" stroke="rgb(238,136,135)" stroke-width="1" opacity="0.9450980392156862" d="M 848.5 318 L 847.5 320 L 848.5 318 Z " /><path fill="rgb(238,136,135)" stroke="rgb(238,136,135)" stroke-width="1" opacity="0.9450980392156862" d="M 859.5 320 L 862 320.5 L 859.5 321 L 859.5 320 Z " /><path fill="rgb(238,136,135)" stroke="rgb(238,136,135)" stroke-width="1" opacity="0.9450980392156862" d="M 776.5 321 L 775.5 323 L 776.5 321 Z " /><path fill="rgb(238,136,135)" stroke="rgb(238,136,135)" stroke-width="1" opacity="0.9450980392156862" d="M 856.5 323 L 857 325.5 L 856 325.5 L 856.5 323 Z " /><path fill="rgb(238,136,135)" stroke="rgb(238,136,135)" stroke-width="1" opacity="0.9450980392156862" d="M 789.5 324 L 788.5 326 L 789.5 324 Z " /><path fill="rgb(238,136,135)" stroke="rgb(238,136,135)" stroke-width="1" opacity="0.9450980392156862" d="M 827.5 324 L 830 324.5 L 827.5 325 L 827.5 324 Z " /><path fill="rgb(238,136,135)" stroke="rgb(238,136,135)" stroke-width="1" opacity="0.9450980392156862" d="M 769.5 326 L 768.5 328 L 769.5 326 Z " /><path fill="rgb(238,136,135)" stroke="rgb(238,136,135)" stroke-width="1" opacity="0.9450980392156862" d="M 784.5 328 L 783.5 330 L 784.5 328 Z " /><path fill="rgb(238,136,135)" stroke="rgb(238,136,135)" stroke-width="1" opacity="0.9450980392156862" d="M 913.5 328 L 916 329.5 L 914.5 329 L 913.5 328 Z " /><path fill="rgb(238,136,135)" stroke="rgb(238,136,135)" stroke-width="1" opacity="0.9450980392156862" d="M 791.5 329 L 792.5 331 L 791.5 329 Z " /><path fill="rgb(238,136,135)" stroke="rgb(238,136,135)" stroke-width="1" opacity="0.9450980392156862" d="M 847.5 329 L 848.5 331 L 847.5 329 Z " /><path fill="rgb(238,136,135)" stroke="rgb(238,136,135)" stroke-width="1" opacity="0.9450980392156862" d="M 206.5 330 L 207.5 332 L 206.5 330 Z " /><path fill="rgb(238,136,135)" stroke="rgb(238,136,135)" stroke-width="1" opacity="0.9450980392156862" d="M 256.5 330 L 257.5 332 L 256.5 330 Z " /><path fill="rgb(238,136,135)" stroke="rgb(238,136,135)" stroke-width="1" opacity="0.9450980392156862" d="M 369.5 330 L 368.5 332 L 369.5 330 Z " /><path fill="rgb(238,136,135)" stroke="rgb(238,136,135)" stroke-width="1" opacity="0.9450980392156862" d="M 809.5 332 L 808.5 334 L 809.5 332 Z " /><path fill="rgb(238,136,135)" stroke="rgb(238,136,135)" stroke-width="1" opacity="0.9450980392156862" d="M 390.5 333 L 389.5 335 L 390.5 333 Z " /><path fill="rgb(238,136,135)" stroke="rgb(238,136,135)" stroke-width="1" opacity="0.9450980392156862" d="M 762.5 333 L 761.5 335 L 762.5 333 Z " /><path fill="rgb(238,136,135)" stroke="rgb(238,136,135)" stroke-width="1" opacity="0.9450980392156862" d="M 811.5 334 Q 814.8 334.8 814 339.5 L 810 352.5 L 809 363.5 L 807 367.5 L 807 369.5 L 807 373 Q 804.3 371.9 805 374.5 Q 804.3 376.8 800.5 376 L 798 372.5 L 798 361.5 L 801 351.5 L 804.5 347 L 805.5 349 Q 808.5 347.5 805.5 346 L 804 345.5 L 807.5 340 L 810 341.5 L 809.5 343 Q 812.1 343.8 811 340.5 L 813 336.5 L 810.5 338 L 809 338.5 L 809.5 340 Q 806.3 338.3 810 336.5 L 811.5 334 Z M 807 344 Q 805 347 808 346 L 807 344 Z M 810 348 L 808 350 L 810 350 L 810 348 Z M 807 357 L 806 360 L 807 360 L 807 357 Z M 803 373 L 801 375 L 804 375 L 803 373 Z " /><path fill="rgb(238,136,135)" stroke="rgb(238,136,135)" stroke-width="1" opacity="0.9450980392156862" d="M 832.5 335 L 837 352.5 L 838 369.5 L 836 377 Q 831.3 378 830 374.5 L 828 370.5 L 827 355.5 L 830 338.5 L 832.5 335 Z " /><path fill="rgb(238,136,135)" stroke="rgb(238,136,135)" stroke-width="1" opacity="0.9450980392156862" d="M 261.5 338 L 263 340.5 L 262 340.5 L 261.5 338 Z " /><path fill="rgb(238,136,135)" stroke="rgb(238,136,135)" stroke-width="1" opacity="0.9450980392156862" d="M 364.5 338 L 364 339.5 L 362.5 342 L 363 340.5 L 364.5 338 Z " /><path fill="rgb(238,136,135)" stroke="rgb(238,136,135)" stroke-width="1" opacity="0.9450980392156862" d="M 213.5 340 L 214.5 342 L 213.5 340 Z " /><path fill="rgb(238,136,135)" stroke="rgb(238,136,135)" stroke-width="1" opacity="0.9450980392156862" d="M 803.5 340 L 802.5 342 L 803.5 340 Z " /><path fill="rgb(238,136,135)" stroke="rgb(238,136,135)" stroke-width="1" opacity="0.9450980392156862" d="M 924.5 340 L 923.5 342 L 924.5 340 Z " /><path fill="rgb(238,136,135)" stroke="rgb(238,136,135)" stroke-width="1" opacity="0.9450980392156862" d="M 263.5 342 L 264.5 344 L 263.5 342 Z " /><path fill="rgb(238,136,135)" stroke="rgb(238,136,135)" stroke-width="1" opacity="0.9450980392156862" d="M 916.5 342 L 921 342.5 L 916.5 343 L 916.5 342 Z " /><path fill="rgb(238,136,135)" stroke="rgb(238,136,135)" stroke-width="1" opacity="0.9450980392156862" d="M 383.5 343 L 383 344.5 L 382.5 346 L 382 344.5 L 383.5 343 Z " /><path fill="rgb(238,136,135)" stroke="rgb(238,136,135)" stroke-width="1" opacity="0.9450980392156862" d="M 360.5 345 L 359.5 347 L 360.5 345 Z " /><path fill="rgb(238,136,135)" stroke="rgb(238,136,135)" stroke-width="1" opacity="0.9450980392156862" d="M 217.5 346 L 218.5 348 L 217.5 346 Z " /><path fill="rgb(238,136,135)" stroke="rgb(238,136,135)" stroke-width="1" opacity="0.9450980392156862" d="M 219.5 349 L 221 351.5 L 219 350.5 L 219.5 349 Z " /><path fill="rgb(238,136,135)" stroke="rgb(238,136,135)" stroke-width="1" opacity="0.9450980392156862" d="M 379.5 350 L 379 351.5 L 376.5 355 L 378 352.5 L 379.5 350 Z " /><path fill="rgb(238,136,135)" stroke="rgb(238,136,135)" stroke-width="1" opacity="0.9450980392156862" d="M 221.5 353 L 222.5 355 L 221.5 353 Z " /><path fill="rgb(238,136,135)" stroke="rgb(238,136,135)" stroke-width="1" opacity="0.9450980392156862" d="M 855.5 354 L 856 356.5 L 854 355.5 L 855.5 354 Z " /><path fill="rgb(238,136,135)" stroke="rgb(238,136,135)" stroke-width="1" opacity="0.9450980392156862" d="M 840.5 357 L 841 359.5 L 840 359.5 L 840.5 357 Z " /><path fill="rgb(238,136,135)" stroke="rgb(238,136,135)" stroke-width="1" opacity="0.9450980392156862" d="M 352.5 358 L 353 359.5 L 351 360.5 L 352.5 358 Z " /><path fill="rgb(238,136,135)" stroke="rgb(238,136,135)" stroke-width="1" opacity="0.9450980392156862" d="M 857.5 358 L 858 360.5 L 857 360.5 L 857.5 358 Z " /><path fill="rgb(238,136,135)" stroke="rgb(238,136,135)" stroke-width="1" opacity="0.9450980392156862" d="M 225.5 359 L 226.5 361 L 225.5 359 Z " /><path fill="rgb(238,136,135)" stroke="rgb(238,136,135)" stroke-width="1" opacity="0.9450980392156862" d="M 776.5 361 L 775.5 363 L 776.5 361 Z " /><path fill="rgb(238,136,135)" stroke="rgb(238,136,135)" stroke-width="1" opacity="0.9450980392156862" d="M 227.5 362 L 232 367.5 L 229 365.5 L 227.5 362 Z " /><path fill="rgb(238,136,135)" stroke="rgb(238,136,135)" stroke-width="1" opacity="0.9450980392156862" d="M 370.5 363 L 371 364.5 L 369 365.5 L 370.5 363 Z " /><path fill="rgb(238,136,135)" stroke="rgb(238,136,135)" stroke-width="1" opacity="0.9450980392156862" d="M 861.5 363 L 863 365.5 L 860.5 367 L 860.5 366 Q 862.8 366.8 862 364.5 L 861.5 363 Z " /><path fill="rgb(238,136,135)" stroke="rgb(238,136,135)" stroke-width="1" opacity="0.9450980392156862" d="M 794.5 364 L 795 369.5 L 794 369.5 L 794.5 364 Z " /><path fill="rgb(238,136,135)" stroke="rgb(238,136,135)" stroke-width="1" opacity="0.9450980392156862" d="M 855.5 364 L 859 365 Q 860 368 857 367 Q 858.1 364.3 855.5 365 L 855.5 364 Z " /><path fill="rgb(238,136,135)" stroke="rgb(238,136,135)" stroke-width="1" opacity="0.9450980392156862" d="M 348.5 366 L 348 367.5 L 346.5 370 L 347 368.5 L 348.5 366 Z " /><path fill="rgb(238,136,135)" stroke="rgb(238,136,135)" stroke-width="1" opacity="0.9450980392156862" d="M 863.5 367 L 862.5 369 L 863.5 367 Z " /><path fill="rgb(238,136,135)" stroke="rgb(238,136,135)" stroke-width="1" opacity="0.9450980392156862" d="M 867.5 367 L 869 374.5 L 865.5 377 L 863.5 374 Q 860.2 375.1 861 372.5 L 858 368.5 L 859.5 369 L 861 369.5 Q 858.3 371.3 862.5 373 L 864.5 369 L 867 370 L 867.5 367 Z " /><path fill="rgb(238,136,135)" stroke="rgb(238,136,135)" stroke-width="1" opacity="0.9450980392156862" d="M 344.5 371 L 345 372.5 L 342.5 376 L 343 374.5 L 344.5 371 Z " /><path fill="rgb(238,136,135)" stroke="rgb(238,136,135)" stroke-width="1" opacity="0.9450980392156862" d="M 496.5 373 L 501 373.5 L 496.5 374 L 496.5 373 Z " /><path fill="rgb(238,136,135)" stroke="rgb(238,136,135)" stroke-width="1" opacity="0.9450980392156862" d="M 923.5 373 L 924 375.5 L 923 375.5 L 923.5 373 Z " /><path fill="rgb(238,136,135)" stroke="rgb(238,136,135)" stroke-width="1" opacity="0.9450980392156862" d="M 283.5 374 L 284.5 376 L 283.5 374 Z " /><path fill="rgb(238,136,135)" stroke="rgb(238,136,135)" stroke-width="1" opacity="0.9450980392156862" d="M 362.5 375 L 363 376.5 L 359.5 382 L 359 380.5 L 362.5 375 Z " /><path fill="rgb(238,136,135)" stroke="rgb(238,136,135)" stroke-width="1" opacity="0.9450980392156862" d="M 477.5 375 L 481 375.5 L 477.5 376 L 477.5 375 Z " /><path fill="rgb(238,136,135)" stroke="rgb(238,136,135)" stroke-width="1" opacity="0.9450980392156862" d="M 471.5 376 L 474 376.5 L 471.5 377 L 471.5 376 Z " /><path fill="rgb(238,136,135)" stroke="rgb(238,136,135)" stroke-width="1" opacity="0.9450980392156862" d="M 485.5 376 Q 531.6 372.9 550.5 397 L 551 395.5 L 546 389.5 L 550 392.5 Q 549.2 395.1 552.5 394 L 552 395.5 L 552.5 397 L 564 388.5 L 562 387.5 L 563.5 387 L 565.5 388 Q 578.1 379.1 599.5 379 Q 609 380.6 614 386.5 L 620 397.5 L 623 410.5 L 623 444.5 L 622 445.5 L 621 487.5 L 620 488.5 L 619 539.5 L 620 540.5 L 620 557.5 L 623 573.5 Q 625.9 585.1 634.5 591 Q 642.5 596 657.5 594 Q 678.7 588.2 690 572.5 Q 702.5 557 711 537.5 L 726 495.5 L 731 473.5 L 731 467.5 L 734 452.5 L 735 429.5 L 736 428.5 L 736 394.5 L 737.5 393 L 752.5 388 L 776.5 384 Q 779.5 385.5 778 391.5 L 776 399.5 L 775 419.5 L 774 420.5 L 774 434.5 L 773 435.5 L 772 488.5 L 771 489.5 L 771 536.5 L 770 537.5 L 769 570.5 L 768 571.5 L 768 599.5 L 767 600.5 L 766 644.5 L 765 645.5 L 765 656.5 L 763 663.5 L 763 669.5 L 758 689.5 L 747 717.5 Q 735.8 736.3 719.5 750 Q 708.1 759.1 693.5 765 L 670.5 770 L 648.5 771 L 647.5 770 L 634.5 769 L 620.5 765 Q 605 759 595 747.5 L 588 734.5 L 588 723.5 Q 589.8 716.3 595.5 713 Q 599.1 710.1 606.5 711 L 616 717.5 Q 623.2 734.8 635.5 747 Q 641.9 753.1 651.5 756 L 662.5 758 L 672.5 758 L 673.5 757 L 684.5 756 L 695.5 751 L 710 738.5 Q 718.6 727.6 724 713.5 L 729 696.5 L 729 691.5 L 732 678.5 L 733 655.5 L 734 654.5 L 734 633.5 L 735 632.5 L 736 515.5 L 735 509 L 732.5 508 L 723 536.5 L 710 565.5 Q 701.6 582.1 688.5 594 Q 677.4 603.4 662.5 609 L 648.5 612 L 634.5 612 L 616.5 608 Q 603.6 603.4 596 593.5 L 590 583.5 L 585 566.5 L 585 557.5 L 584 556.5 L 584 519.5 L 585 518.5 L 585 490.5 L 586 489.5 L 587 433.5 L 588 432.5 L 587 431.5 Q 588.5 420 586 412.5 L 579.5 401 Q 575.2 397.3 565.5 399 L 556 402.5 L 559 403.5 L 555 404.5 L 561 420.5 L 561 433.5 Q 557 447 546.5 454 L 534 461.5 L 535 463.5 L 534 463.5 Q 534.8 461.3 532.5 462 L 503.5 472 L 459.5 480 L 432.5 483 L 426 485.5 L 425 487.5 L 425 513.5 L 426 514.5 L 428 532.5 L 434 551.5 Q 440.7 568.3 453.5 579 Q 455.8 579.8 455 577.5 L 445.5 567 L 460 580.5 L 458 581.5 L 466.5 587 L 485.5 593 L 510.5 594 L 530.5 589 L 545 579.5 L 543.5 579 L 542 579.5 L 551.5 571 L 548.5 575 L 545 577.5 Q 544.3 579.8 546.5 579 L 558.5 568 L 562 567 Q 559.3 581.9 547.5 589 L 535.5 597 L 515.5 605 L 494.5 609 L 475.5 609 L 474.5 608 L 462.5 607 L 439.5 599 Q 422.5 591 410.5 578 L 410 579.5 L 413.5 584 L 408.5 578 Q 410.8 578.8 410 576.5 Q 395.9 561.6 389 539.5 L 384 513.5 L 384 484.5 L 389 458.5 L 401 431.5 Q 410.9 414.4 425.5 402 Q 437.9 390.9 454.5 384 L 466.5 380 L 485.5 376 Z M 482 385 Q 467 388 458 396 L 443 412 L 434 430 L 428 452 L 426 471 L 429 472 L 428 472 L 428 473 L 481 465 L 503 458 L 511 453 L 520 444 L 524 436 L 526 427 Q 528 405 518 395 L 506 386 L 502 385 L 482 385 Z M 456 579 L 457 581 L 458 581 L 456 579 Z " /><path fill="rgb(238,136,135)" stroke="rgb(238,136,135)" stroke-width="1" opacity="0.9450980392156862" d="M 519.5 376 L 522 376.5 L 519.5 377 L 519.5 376 Z " /><path fill="rgb(238,136,135)" stroke="rgb(238,136,135)" stroke-width="1" opacity="0.9450980392156862" d="M 871.5 376 L 873 378.5 L 871 379.5 L 871.5 376 Z " /><path fill="rgb(238,136,135)" stroke="rgb(238,136,135)" stroke-width="1" opacity="0.9450980392156862" d="M 604.5 378 L 610 380.5 L 608.5 380 L 604.5 379 L 604.5 378 Z " /><path fill="rgb(238,136,135)" stroke="rgb(238,136,135)" stroke-width="1" opacity="0.9450980392156862" d="M 922.5 378 L 921.5 380 L 922.5 378 Z " /><path fill="rgb(238,136,135)" stroke="rgb(238,136,135)" stroke-width="1" opacity="0.9450980392156862" d="M 287.5 380 L 289 382.5 L 287 381.5 L 287.5 380 Z " /><path fill="rgb(238,136,135)" stroke="rgb(238,136,135)" stroke-width="1" opacity="0.9450980392156862" d="M 455.5 381 L 454.5 383 L 453 382.5 L 455.5 381 Z " /><path fill="rgb(238,136,135)" stroke="rgb(238,136,135)" stroke-width="1" opacity="0.9450980392156862" d="M 774.5 381 L 777 381.5 L 774.5 382 L 774.5 381 Z " /><path fill="rgb(238,136,135)" stroke="rgb(238,136,135)" stroke-width="1" opacity="0.9450980392156862" d="M 240.5 382 L 241.5 384 L 240.5 382 Z " /><path fill="rgb(238,136,135)" stroke="rgb(238,136,135)" stroke-width="1" opacity="0.9450980392156862" d="M 612.5 382 L 613.5 384 L 612.5 382 Z " /><path fill="rgb(238,136,135)" stroke="rgb(238,136,135)" stroke-width="1" opacity="0.9450980392156862" d="M 768.5 382 L 770 382.5 L 766.5 384 L 766.5 383 L 768.5 382 Z " /><path fill="rgb(238,136,135)" stroke="rgb(238,136,135)" stroke-width="1" opacity="0.9450980392156862" d="M 568.5 383 L 566.5 386 L 565 385.5 L 568.5 383 Z " /><path fill="rgb(238,136,135)" stroke="rgb(238,136,135)" stroke-width="1" opacity="0.9450980392156862" d="M 763.5 383 L 765 383.5 Q 764.3 385.8 760.5 385 L 760.5 384 L 763.5 383 Z " /><path fill="rgb(238,136,135)" stroke="rgb(238,136,135)" stroke-width="1" opacity="0.9450980392156862" d="M 289.5 384 L 291 386.5 L 290 386.5 L 289.5 384 Z " /><path fill="rgb(238,136,135)" stroke="rgb(238,136,135)" stroke-width="1" opacity="0.9450980392156862" d="M 539.5 384 L 540.5 386 L 539.5 384 Z " /><path fill="rgb(238,136,135)" stroke="rgb(238,136,135)" stroke-width="1" opacity="0.9450980392156862" d="M 336.5 385 L 337 386.5 L 335 387.5 L 336.5 385 Z " /><path fill="rgb(238,136,135)" stroke="rgb(238,136,135)" stroke-width="1" opacity="0.9450980392156862" d="M 447.5 385 L 449 385.5 L 446.5 387 L 447.5 385 Z " /><path fill="rgb(238,136,135)" stroke="rgb(238,136,135)" stroke-width="1" opacity="0.9450980392156862" d="M 486.5 386 L 492 386.5 L 486.5 387 L 486.5 386 Z " /><path fill="rgb(238,136,135)" stroke="rgb(238,136,135)" stroke-width="1" opacity="0.9450980392156862" d="M 493.5 386 L 497 386.5 L 493.5 387 L 493.5 386 Z " /><path fill="rgb(238,136,135)" stroke="rgb(238,136,135)" stroke-width="1" opacity="0.9450980392156862" d="M 479.5 387 L 478.5 389 L 479.5 387 Z " /><path fill="rgb(238,136,135)" stroke="rgb(238,136,135)" stroke-width="1" opacity="0.9450980392156862" d="M 503.5 387 L 504.5 389 Q 501.7 389.7 503.5 387 Z " /><path fill="rgb(238,136,135)" stroke="rgb(238,136,135)" stroke-width="1" opacity="0.9450980392156862" d="M 476.5 388 L 475.5 390 L 476.5 388 Z " /><path fill="rgb(238,136,135)" stroke="rgb(238,136,135)" stroke-width="1" opacity="0.9450980392156862" d="M 560.5 388 L 559.5 390 L 560.5 388 Z " /><path fill="rgb(238,136,135)" stroke="rgb(238,136,135)" stroke-width="1" opacity="0.9450980392156862" d="M 473.5 389 L 472.5 391 L 473.5 389 Z " /><path fill="rgb(238,136,135)" stroke="rgb(238,136,135)" stroke-width="1" opacity="0.9450980392156862" d="M 245.5 390 L 246.5 392 L 245.5 390 Z " /><path fill="rgb(238,136,135)" stroke="rgb(238,136,135)" stroke-width="1" opacity="0.9450980392156862" d="M 557.5 390 L 556.5 392 L 555 391.5 L 557.5 390 Z " /><path fill="rgb(238,136,135)" stroke="rgb(238,136,135)" stroke-width="1" opacity="0.9450980392156862" d="M 436.5 391 L 438 391.5 L 434.5 393 L 434.5 392 L 436.5 391 Z " /><path fill="rgb(238,136,135)" stroke="rgb(238,136,135)" stroke-width="1" opacity="0.9450980392156862" d="M 735.5 391 L 737 391.5 L 734.5 393 L 735.5 391 Z " /><path fill="rgb(238,136,135)" stroke="rgb(238,136,135)" stroke-width="1" opacity="0.9450980392156862" d="M 512.5 392 L 513.5 394 L 512.5 392 Z " /><path fill="rgb(238,136,135)" stroke="rgb(238,136,135)" stroke-width="1" opacity="0.9450980392156862" d="M 247.5 393 L 248.5 395 L 247.5 393 Z " /><path fill="rgb(238,136,135)" stroke="rgb(238,136,135)" stroke-width="1" opacity="0.9450980392156862" d="M 432.5 394 L 431.5 396 L 429.5 397 L 430.5 395 L 432.5 394 Z " /><path fill="rgb(238,136,135)" stroke="rgb(238,136,135)" stroke-width="1" opacity="0.9450980392156862" d="M 330.5 395 L 331 396.5 L 329 397.5 L 330.5 395 Z " /><path fill="rgb(238,136,135)" stroke="rgb(238,136,135)" stroke-width="1" opacity="0.9450980392156862" d="M 249.5 396 L 250.5 398 L 249.5 396 Z " /><path fill="rgb(238,136,135)" stroke="rgb(238,136,135)" stroke-width="1" opacity="0.9450980392156862" d="M 516.5 396 L 519 399.5 L 518 399.5 L 516.5 396 Z " /><path fill="rgb(238,136,135)" stroke="rgb(238,136,135)" stroke-width="1" opacity="0.9450980392156862" d="M 622.5 397 L 623 399.5 L 622 399.5 L 622.5 397 Z " /><path fill="rgb(238,136,135)" stroke="rgb(238,136,135)" stroke-width="1" opacity="0.9450980392156862" d="M 426.5 398 L 428 398.5 L 425.5 400 L 426.5 398 Z " /><path fill="rgb(238,136,135)" stroke="rgb(238,136,135)" stroke-width="1" opacity="0.9450980392156862" d="M 327.5 400 L 328 402 L 326 401.5 L 327.5 400 Z " /><path fill="rgb(238,136,135)" stroke="rgb(238,136,135)" stroke-width="1" opacity="0.9450980392156862" d="M 568.5 400 L 572 400.5 L 568.5 401 L 568.5 400 Z " /><path fill="rgb(238,136,135)" stroke="rgb(238,136,135)" stroke-width="1" opacity="0.9450980392156862" d="M 734.5 402 L 735 404.5 L 734 404.5 L 734.5 402 Z " /><path fill="rgb(238,136,135)" stroke="rgb(238,136,135)" stroke-width="1" opacity="0.9450980392156862" d="M 325.5 403 L 326 404.5 L 324 405.5 L 325.5 403 Z " /><path fill="rgb(238,136,135)" stroke="rgb(238,136,135)" stroke-width="1" opacity="0.9450980392156862" d="M 255.5 405 L 258 409.5 L 257 409.5 L 255.5 405 Z " /><path fill="rgb(238,136,135)" stroke="rgb(238,136,135)" stroke-width="1" opacity="0.9450980392156862" d="M 323.5 407 L 322 409.5 L 319.5 413 L 321 410.5 L 323.5 407 Z " /><path fill="rgb(238,136,135)" stroke="rgb(238,136,135)" stroke-width="1" opacity="0.9450980392156862" d="M 342.5 407 L 343 408.5 L 341 409.5 L 342.5 407 Z " /><path fill="rgb(238,136,135)" stroke="rgb(238,136,135)" stroke-width="1" opacity="0.9450980392156862" d="M 417.5 407 L 416.5 409 L 417.5 407 Z " /><path fill="rgb(238,136,135)" stroke="rgb(238,136,135)" stroke-width="1" opacity="0.9450980392156862" d="M 449.5 407 L 448.5 409 L 449.5 407 Z " /><path fill="rgb(238,136,135)" stroke="rgb(238,136,135)" stroke-width="1" opacity="0.9450980392156862" d="M 803.5 407 L 806 407.5 L 803.5 408 L 803.5 407 Z " /><path fill="rgb(238,136,135)" stroke="rgb(238,136,135)" stroke-width="1" opacity="0.9450980392156862" d="M 259.5 412 L 262 415.5 L 261 415.5 L 259.5 412 Z " /><path fill="rgb(238,136,135)" stroke="rgb(238,136,135)" stroke-width="1" opacity="0.9450980392156862" d="M 625.5 412 L 626 414.5 L 625 414.5 L 625.5 412 Z " /><path fill="rgb(238,136,135)" stroke="rgb(238,136,135)" stroke-width="1" opacity="0.9450980392156862" d="M 560.5 413 L 561.5 415 L 560.5 413 Z " /><path fill="rgb(238,136,135)" stroke="rgb(238,136,135)" stroke-width="1" opacity="0.9450980392156862" d="M 317.5 416 L 317 417.5 L 315.5 420 L 315 418.5 L 317.5 416 Z " /><path fill="rgb(238,136,135)" stroke="rgb(238,136,135)" stroke-width="1" opacity="0.9450980392156862" d="M 561.5 416 L 563 418.5 L 562 418.5 L 561.5 416 Z " /><path fill="rgb(238,136,135)" stroke="rgb(238,136,135)" stroke-width="1" opacity="0.9450980392156862" d="M 263.5 418 L 265.5 421 L 263.5 418 Z " /><path fill="rgb(238,136,135)" stroke="rgb(238,136,135)" stroke-width="1" opacity="0.9450980392156862" d="M 406.5 420 L 405 422.5 L 404.5 424 L 404 422.5 L 406.5 420 Z " /><path fill="rgb(238,136,135)" stroke="rgb(238,136,135)" stroke-width="1" opacity="0.9450980392156862" d="M 563.5 422 L 564 424.5 L 563 424.5 L 563.5 422 Z " /><path fill="rgb(238,136,135)" stroke="rgb(238,136,135)" stroke-width="1" opacity="0.9450980392156862" d="M 402.5 425 L 403 426.5 L 401 427.5 L 402.5 425 Z " /><path fill="rgb(238,136,135)" stroke="rgb(238,136,135)" stroke-width="1" opacity="0.9450980392156862" d="M 269.5 426 L 272 430.5 L 271 430.5 L 269.5 426 Z " /><path fill="rgb(238,136,135)" stroke="rgb(238,136,135)" stroke-width="1" opacity="0.9450980392156862" d="M 625.5 426 L 626 428.5 L 625 428.5 L 625.5 426 Z " /><path fill="rgb(238,136,135)" stroke="rgb(238,136,135)" stroke-width="1" opacity="0.9450980392156862" d="M 328 428 L 330 428.5 L 328 429.5 L 328 428 Z " /><path fill="rgb(238,136,135)" stroke="rgb(238,136,135)" stroke-width="1" opacity="0.9450980392156862" d="M 776.5 429 L 777 431.5 L 775.5 434 L 775 432.5 L 776.5 429 Z " /><path fill="rgb(238,136,135)" stroke="rgb(238,136,135)" stroke-width="1" opacity="0.9450980392156862" d="M 733.5 430 L 734 435.5 L 733 435.5 L 733.5 430 Z " /><path fill="rgb(238,136,135)" stroke="rgb(238,136,135)" stroke-width="1" opacity="0.9450980392156862" d="M 563.5 431 L 564 433.5 L 563 433.5 L 563.5 431 Z " /><path fill="rgb(238,136,135)" stroke="rgb(238,136,135)" stroke-width="1" opacity="0.9450980392156862" d="M 521.5 435 L 522 436.5 L 520 441 L 518 440.5 L 521.5 435 Z " /><path fill="rgb(238,136,135)" stroke="rgb(238,136,135)" stroke-width="1" opacity="0.9450980392156862" d="M 562.5 436 L 561.5 438 L 562.5 436 Z " /><path fill="rgb(238,136,135)" stroke="rgb(238,136,135)" stroke-width="1" opacity="0.9450980392156862" d="M 625.5 437 L 626 440.5 L 625 440.5 L 625.5 437 Z " /><path fill="rgb(238,136,135)" stroke="rgb(238,136,135)" stroke-width="1" opacity="0.9450980392156862" d="M 517.5 442 L 518 443.5 L 516 444.5 L 517.5 442 Z " /><path fill="rgb(238,136,135)" stroke="rgb(238,136,135)" stroke-width="1" opacity="0.9450980392156862" d="M 775.5 446 L 776 453.5 L 775 453.5 L 775.5 446 Z " /><path fill="rgb(238,136,135)" stroke="rgb(238,136,135)" stroke-width="1" opacity="0.9450980392156862" d="M 555.5 447 L 556 448.5 L 549.5 454 L 550.5 452 L 555 448.5 L 555.5 447 Z " /><path fill="rgb(238,136,135)" stroke="rgb(238,136,135)" stroke-width="1" opacity="0.9450980392156862" d="M 859.5 448 L 860 456.5 L 859 456.5 L 859.5 448 Z " /><path fill="rgb(238,136,135)" stroke="rgb(238,136,135)" stroke-width="1" opacity="0.9450980392156862" d="M 511.5 449 L 510.5 451 L 506.5 453 L 506.5 452 L 511.5 449 Z " /><path fill="rgb(238,136,135)" stroke="rgb(238,136,135)" stroke-width="1" opacity="0.9450980392156862" d="M 731.5 452 L 732 454.5 L 731 454.5 L 731.5 452 Z " /><path fill="rgb(238,136,135)" stroke="rgb(238,136,135)" stroke-width="1" opacity="0.9450980392156862" d="M 547.5 455 L 546.5 457 L 545 456.5 L 547.5 455 Z " /><path fill="rgb(238,136,135)" stroke="rgb(238,136,135)" stroke-width="1" opacity="0.9450980392156862" d="M 498.5 456 L 497.5 458 L 495.5 459 L 496.5 457 L 498.5 456 Z " /><path fill="rgb(238,136,135)" stroke="rgb(238,136,135)" stroke-width="1" opacity="0.9450980392156862" d="M 624.5 456 L 625 459.5 L 624 459.5 L 624.5 456 Z " /><path fill="rgb(238,136,135)" stroke="rgb(238,136,135)" stroke-width="1" opacity="0.9450980392156862" d="M 819.5 457 L 820 464.5 L 819 464.5 L 819.5 457 Z " /><path fill="rgb(238,136,135)" stroke="rgb(238,136,135)" stroke-width="1" opacity="0.9450980392156862" d="M 279.5 458 L 280 466.5 L 279 466.5 L 279.5 458 Z " /><path fill="rgb(238,136,135)" stroke="rgb(238,136,135)" stroke-width="1" opacity="0.9450980392156862" d="M 321.5 458 L 322 463.5 L 321 463.5 L 321.5 458 Z " /><path fill="rgb(238,136,135)" stroke="rgb(238,136,135)" stroke-width="1" opacity="0.9450980392156862" d="M 429.5 459 L 430 461.5 L 429 461.5 L 429.5 459 Z " /><path fill="rgb(238,136,135)" stroke="rgb(238,136,135)" stroke-width="1" opacity="0.9450980392156862" d="M 490.5 459 L 489.5 461 L 490.5 459 Z " /><path fill="rgb(238,136,135)" stroke="rgb(238,136,135)" stroke-width="1" opacity="0.9450980392156862" d="M 538.5 460 L 540 460.5 L 537.5 462 L 538.5 460 Z " /><path fill="rgb(238,136,135)" stroke="rgb(238,136,135)" stroke-width="1" opacity="0.9450980392156862" d="M 483.5 461 L 486 461.5 L 483.5 462 L 483.5 461 Z " /><path fill="rgb(238,136,135)" stroke="rgb(238,136,135)" stroke-width="1" opacity="0.9450980392156862" d="M 480.5 462 L 482 462.5 L 477.5 464 L 477.5 463 L 480.5 462 Z " /><path fill="rgb(238,136,135)" stroke="rgb(238,136,135)" stroke-width="1" opacity="0.9450980392156862" d="M 428 463 L 430 463.5 L 428.5 466 L 428 463 Z " /><path fill="rgb(238,136,135)" stroke="rgb(238,136,135)" stroke-width="1" opacity="0.9450980392156862" d="M 729.5 463 L 730 465.5 L 729 465.5 L 729.5 463 Z " /><path fill="rgb(238,136,135)" stroke="rgb(238,136,135)" stroke-width="1" opacity="0.9450980392156862" d="M 584.5 464 L 585 469.5 L 584 469.5 L 584.5 464 Z " /><path fill="rgb(238,136,135)" stroke="rgb(238,136,135)" stroke-width="1" opacity="0.9450980392156862" d="M 529.5 465 L 531 465.5 L 527.5 467 L 527.5 466 L 529.5 465 Z " /><path fill="rgb(238,136,135)" stroke="rgb(238,136,135)" stroke-width="1" opacity="0.9450980392156862" d="M 449.5 467 L 451 467.5 L 446.5 469 L 446.5 468 L 449.5 467 Z " /><path fill="rgb(238,136,135)" stroke="rgb(238,136,135)" stroke-width="1" opacity="0.9450980392156862" d="M 384.5 468 L 385 471.5 L 383.5 475 L 383 472.5 L 384.5 468 Z " /><path fill="rgb(238,136,135)" stroke="rgb(238,136,135)" stroke-width="1" opacity="0.9450980392156862" d="M 436.5 469 L 441 469.5 L 435.5 471 L 436.5 469 Z " /><path fill="rgb(238,136,135)" stroke="rgb(238,136,135)" stroke-width="1" opacity="0.9450980392156862" d="M 728.5 469 L 729 471.5 L 728 471.5 L 728.5 469 Z " /><path fill="rgb(238,136,135)" stroke="rgb(238,136,135)" stroke-width="1" opacity="0.9450980392156862" d="M 430.5 470 L 433 470.5 L 430.5 471 L 430.5 470 Z " /><path fill="rgb(238,136,135)" stroke="rgb(238,136,135)" stroke-width="1" opacity="0.9450980392156862" d="M 774.5 470 L 775 473.5 L 774 473.5 L 774.5 470 Z " /><path fill="rgb(238,136,135)" stroke="rgb(238,136,135)" stroke-width="1" opacity="0.9450980392156862" d="M 279.5 473 L 280 475.5 L 279 475.5 L 279.5 473 Z " /><path fill="rgb(238,136,135)" stroke="rgb(238,136,135)" stroke-width="1" opacity="0.9450980392156862" d="M 503.5 473 L 506 473.5 L 503.5 474 L 503.5 473 Z " /><path fill="rgb(238,136,135)" stroke="rgb(238,136,135)" stroke-width="1" opacity="0.9450980392156862" d="M 774.5 475 L 775 477.5 L 774 477.5 L 774.5 475 Z " /><path fill="rgb(238,136,135)" stroke="rgb(238,136,135)" stroke-width="1" opacity="0.9450980392156862" d="M 383.5 477 L 384 478.5 L 382.5 481 L 382 478.5 L 383.5 477 Z " /><path fill="rgb(238,136,135)" stroke="rgb(238,136,135)" stroke-width="1" opacity="0.9450980392156862" d="M 623.5 477 L 624 482.5 L 623 482.5 L 623.5 477 Z " /><path fill="rgb(238,136,135)" stroke="rgb(238,136,135)" stroke-width="1" opacity="0.9450980392156862" d="M 279.5 479 L 280 488.5 L 279 488.5 L 279.5 479 Z " /><path fill="rgb(238,136,135)" stroke="rgb(238,136,135)" stroke-width="1" opacity="0.9450980392156862" d="M 774.5 479 L 775 482 Q 772.3 483.1 773 480.5 L 774.5 479 Z " /><path fill="rgb(238,136,135)" stroke="rgb(238,136,135)" stroke-width="1" opacity="0.9450980392156862" d="M 321.5 480 L 322 511.5 L 321 511.5 L 321 495.5 L 320 492.5 L 321 491.5 L 321 482.5 Q 318.8 481.3 321.5 480 Z " /><path fill="rgb(238,136,135)" stroke="rgb(238,136,135)" stroke-width="1" opacity="0.9450980392156862" d="M 726.5 480 L 727 483.5 L 726 483.5 L 726.5 480 Z " /><path fill="rgb(238,136,135)" stroke="rgb(238,136,135)" stroke-width="1" opacity="0.9450980392156862" d="M 434.5 485 L 437 485.5 L 434.5 486 L 434.5 485 Z " /><path fill="rgb(238,136,135)" stroke="rgb(238,136,135)" stroke-width="1" opacity="0.9450980392156862" d="M 583.5 485 L 584 497.5 L 583 497.5 L 583.5 485 Z " /><path fill="rgb(238,136,135)" stroke="rgb(238,136,135)" stroke-width="1" opacity="0.9450980392156862" d="M 381.5 486 Q 384.3 487.3 382 488.5 L 381.5 490 L 381.5 486 Z " /><path fill="rgb(238,136,135)" stroke="rgb(238,136,135)" stroke-width="1" opacity="0.9450980392156862" d="M 426 488 L 428 488.5 L 428 506.5 L 427 506.5 L 426 488 Z " /><path fill="rgb(238,136,135)" stroke="rgb(238,136,135)" stroke-width="1" opacity="0.9450980392156862" d="M 724.5 489 L 725 491.5 L 724 491.5 L 724.5 489 Z " /><path fill="rgb(238,136,135)" stroke="rgb(238,136,135)" stroke-width="1" opacity="0.9450980392156862" d="M 818.5 490 L 819 493.5 L 818 493.5 L 818.5 490 Z " /><path fill="rgb(238,136,135)" stroke="rgb(238,136,135)" stroke-width="1" opacity="0.9450980392156862" d="M 279.5 494 L 280 506.5 L 279 506.5 L 279.5 494 Z " /><path fill="rgb(238,136,135)" stroke="rgb(238,136,135)" stroke-width="1" opacity="0.9450980392156862" d="M 381.5 498 L 382 501.5 L 381 501.5 L 381.5 498 Z " /><path fill="rgb(238,136,135)" stroke="rgb(238,136,135)" stroke-width="1" opacity="0.9450980392156862" d="M 857.5 500 L 858 505.5 L 857 505.5 L 857.5 500 Z " /><path fill="rgb(238,136,135)" stroke="rgb(238,136,135)" stroke-width="1" opacity="0.9450980392156862" d="M 773.5 503 L 774 512.5 L 773 512.5 L 773.5 503 Z " /><path fill="rgb(238,136,135)" stroke="rgb(238,136,135)" stroke-width="1" opacity="0.9450980392156862" d="M 622.5 504 L 623 507.5 L 622 507.5 L 622.5 504 Z " /><path fill="rgb(238,136,135)" stroke="rgb(238,136,135)" stroke-width="1" opacity="0.9450980392156862" d="M 279.5 508 L 280 513.5 L 279 513.5 L 279.5 508 Z " /><path fill="rgb(238,136,135)" stroke="rgb(238,136,135)" stroke-width="1" opacity="0.9450980392156862" d="M 381.5 509 L 383 511.5 L 381 510.5 L 381.5 509 Z " /><path fill="rgb(238,136,135)" stroke="rgb(238,136,135)" stroke-width="1" opacity="0.9450980392156862" d="M 733.5 511 L 734 515.5 L 732 514.5 L 733.5 511 Z " /><path fill="rgb(238,136,135)" stroke="rgb(238,136,135)" stroke-width="1" opacity="0.9450980392156862" d="M 427.5 514 L 429 516.5 L 427 515.5 L 427.5 514 Z " /><path fill="rgb(238,136,135)" stroke="rgb(238,136,135)" stroke-width="1" opacity="0.9450980392156862" d="M 773.5 515 L 774 518.5 L 773 518.5 L 773.5 515 Z " /><path fill="rgb(238,136,135)" stroke="rgb(238,136,135)" stroke-width="1" opacity="0.9450980392156862" d="M 279.5 516 L 280 518.5 L 279 518.5 L 279.5 516 Z " /><path fill="rgb(238,136,135)" stroke="rgb(238,136,135)" stroke-width="1" opacity="0.9450980392156862" d="M 582.5 516 L 583 523.5 L 582 523.5 L 582.5 516 Z " /><path fill="rgb(238,136,135)" stroke="rgb(238,136,135)" stroke-width="1" opacity="0.9450980392156862" d="M 382.5 518 L 384 521.5 L 382 520.5 L 382.5 518 Z " /><path fill="rgb(238,136,135)" stroke="rgb(238,136,135)" stroke-width="1" opacity="0.9450980392156862" d="M 817.5 518 L 818 522.5 L 817 522.5 L 817.5 518 Z " /><path fill="rgb(238,136,135)" stroke="rgb(238,136,135)" stroke-width="1" opacity="0.9450980392156862" d="M 621.5 523 L 622 525.5 L 621 525.5 L 621.5 523 Z " /><path fill="rgb(238,136,135)" stroke="rgb(238,136,135)" stroke-width="1" opacity="0.9450980392156862" d="M 383.5 525 L 384.5 527 L 383.5 525 Z " /><path fill="rgb(238,136,135)" stroke="rgb(238,136,135)" stroke-width="1" opacity="0.9450980392156862" d="M 713.5 526 L 713 527.5 L 710.5 533 L 710 531.5 L 713.5 526 Z " /><path fill="rgb(238,136,135)" stroke="rgb(238,136,135)" stroke-width="1" opacity="0.9450980392156862" d="M 384.5 528 L 386 532.5 L 385 532.5 L 384.5 528 Z " /><path fill="rgb(238,136,135)" stroke="rgb(238,136,135)" stroke-width="1" opacity="0.9450980392156862" d="M 772.5 528 L 773 534.5 L 772 534.5 L 772.5 528 Z " /><path fill="rgb(238,136,135)" stroke="rgb(238,136,135)" stroke-width="1" opacity="0.9450980392156862" d="M 856.5 530 L 857 533.5 L 856 533.5 L 856.5 530 Z " /><path fill="rgb(238,136,135)" stroke="rgb(238,136,135)" stroke-width="1" opacity="0.9450980392156862" d="M 726.5 532 L 726 533.5 L 725.5 535 L 725 533.5 L 726.5 532 Z " /><path fill="rgb(238,136,135)" stroke="rgb(238,136,135)" stroke-width="1" opacity="0.9450980392156862" d="M 278.5 535 L 279 542.5 L 278 542.5 L 278.5 535 Z " /><path fill="rgb(238,136,135)" stroke="rgb(238,136,135)" stroke-width="1" opacity="0.9450980392156862" d="M 772.5 539 L 773 543.5 L 772 543.5 L 772.5 539 Z " /><path fill="rgb(238,136,135)" stroke="rgb(238,136,135)" stroke-width="1" opacity="0.9450980392156862" d="M 321.5 540 L 322 552 Q 319.3 553.1 320 550.5 L 321 549.5 L 321.5 540 Z " /><path fill="rgb(238,136,135)" stroke="rgb(238,136,135)" stroke-width="1" opacity="0.9450980392156862" d="M 582.5 540 L 583 547.5 L 582 547.5 L 582.5 540 Z " /><path fill="rgb(238,136,135)" stroke="rgb(238,136,135)" stroke-width="1" opacity="0.9450980392156862" d="M 816.5 541 L 817 546.5 L 816 546.5 L 816.5 541 Z " /><path fill="rgb(238,136,135)" stroke="rgb(238,136,135)" stroke-width="1" opacity="0.9450980392156862" d="M 435.5 547 L 437 550.5 L 435 549.5 L 435.5 547 Z " /><path fill="rgb(238,136,135)" stroke="rgb(238,136,135)" stroke-width="1" opacity="0.9450980392156862" d="M 390.5 548 L 392 551.5 L 391 551.5 L 390.5 548 Z " /><path fill="rgb(238,136,135)" stroke="rgb(238,136,135)" stroke-width="1" opacity="0.9450980392156862" d="M 702.5 549 L 702 550.5 L 700.5 553 L 701 551.5 L 702.5 549 Z " /><path fill="rgb(238,136,135)" stroke="rgb(238,136,135)" stroke-width="1" opacity="0.9450980392156862" d="M 771.5 549 L 772 552.5 L 771 552.5 L 771.5 549 Z " /><path fill="rgb(238,136,135)" stroke="rgb(238,136,135)" stroke-width="1" opacity="0.9450980392156862" d="M 719.5 550 L 719 551.5 L 718.5 553 L 718 551.5 L 719.5 550 Z " /><path fill="rgb(238,136,135)" stroke="rgb(238,136,135)" stroke-width="1" opacity="0.9450980392156862" d="M 734.5 552 L 735 554.5 L 734 554.5 L 734.5 552 Z " /><path fill="rgb(238,136,135)" stroke="rgb(238,136,135)" stroke-width="1" opacity="0.9450980392156862" d="M 278.5 554 L 279 556.5 L 278 556.5 L 278.5 554 Z " /><path fill="rgb(238,136,135)" stroke="rgb(238,136,135)" stroke-width="1" opacity="0.9450980392156862" d="M 582.5 555 L 583 558.5 L 582 558.5 L 582.5 555 Z " /><path fill="rgb(238,136,135)" stroke="rgb(238,136,135)" stroke-width="1" opacity="0.9450980392156862" d="M 623.5 559 L 624 562.5 L 623 562.5 L 622 560.5 L 623.5 559 Z " /><path fill="rgb(238,136,135)" stroke="rgb(238,136,135)" stroke-width="1" opacity="0.9450980392156862" d="M 696.5 560 L 695.5 562 L 696.5 560 Z " /><path fill="rgb(238,136,135)" stroke="rgb(238,136,135)" stroke-width="1" opacity="0.9450980392156862" d="M 714.5 560 L 714 561.5 L 710.5 569 L 710 567.5 L 714.5 560 Z " /><path fill="rgb(238,136,135)" stroke="rgb(238,136,135)" stroke-width="1" opacity="0.9450980392156862" d="M 277.5 562 L 278 565.5 L 277 565.5 L 277.5 562 Z " /><path fill="rgb(238,136,135)" stroke="rgb(238,136,135)" stroke-width="1" opacity="0.9450980392156862" d="M 583.5 563 L 584 566.5 L 583 566.5 L 583.5 563 Z " /><path fill="rgb(238,136,135)" stroke="rgb(238,136,135)" stroke-width="1" opacity="0.9450980392156862" d="M 398.5 564 L 400 566.5 L 398 565.5 L 398.5 564 Z " /><path fill="rgb(238,136,135)" stroke="rgb(238,136,135)" stroke-width="1" opacity="0.9450980392156862" d="M 691.5 566 L 691 567.5 L 689.5 570 L 689 568.5 L 691.5 566 Z " /><path fill="rgb(238,136,135)" stroke="rgb(238,136,135)" stroke-width="1" opacity="0.9450980392156862" d="M 277.5 567 L 278 569.5 L 277 569.5 L 277.5 567 Z " /><path fill="rgb(238,136,135)" stroke="rgb(238,136,135)" stroke-width="1" opacity="0.9450980392156862" d="M 554.5 568 L 553.5 570 L 554.5 568 Z " /><path fill="rgb(238,136,135)" stroke="rgb(238,136,135)" stroke-width="1" opacity="0.9450980392156862" d="M 401.5 569 L 403 571.5 L 401 570.5 L 401.5 569 Z " /><path fill="rgb(238,136,135)" stroke="rgb(238,136,135)" stroke-width="1" opacity="0.9450980392156862" d="M 564.5 569 L 565 570.5 L 563 571.5 L 564.5 569 Z " /><path fill="rgb(238,136,135)" stroke="rgb(238,136,135)" stroke-width="1" opacity="0.9450980392156862" d="M 770.5 570 L 771 574.5 L 770 574.5 L 770.5 570 Z " /><path fill="rgb(238,136,135)" stroke="rgb(238,136,135)" stroke-width="1" opacity="0.9450980392156862" d="M 687.5 571 L 684.5 575 L 687.5 571 Z " /><path fill="rgb(238,136,135)" stroke="rgb(238,136,135)" stroke-width="1" opacity="0.9450980392156862" d="M 277.5 572 L 277 573.5 L 276.5 575 L 276 573.5 L 277.5 572 Z " /><path fill="rgb(238,136,135)" stroke="rgb(238,136,135)" stroke-width="1" opacity="0.9450980392156862" d="M 706.5 574 L 707 575.5 L 704.5 579 L 705 577.5 L 706.5 574 Z " /><path fill="rgb(238,136,135)" stroke="rgb(238,136,135)" stroke-width="1" opacity="0.9450980392156862" d="M 561.5 575 L 562 576.5 L 559 578.5 L 561.5 575 Z " /><path fill="rgb(238,136,135)" stroke="rgb(238,136,135)" stroke-width="1" opacity="0.9450980392156862" d="M 585.5 575 L 586 577.5 L 585 577.5 L 585.5 575 Z " /><path fill="rgb(238,136,135)" stroke="rgb(238,136,135)" stroke-width="1" opacity="0.9450980392156862" d="M 276.5 577 L 275.5 579 L 276.5 577 Z " /><path fill="rgb(238,136,135)" stroke="rgb(238,136,135)" stroke-width="1" opacity="0.9450980392156862" d="M 898.5 577 L 897.5 579 L 898.5 577 Z " /><path fill="rgb(238,136,135)" stroke="rgb(238,136,135)" stroke-width="1" opacity="0.9450980392156862" d="M 275.5 580 L 274.5 582 L 275.5 580 Z " /><path fill="rgb(238,136,135)" stroke="rgb(238,136,135)" stroke-width="1" opacity="0.9450980392156862" d="M 557.5 581 L 557 582.5 L 551.5 589 L 550 588.5 L 553 587 Q 551.9 584.3 554.5 585 L 557.5 581 Z " /><path fill="rgb(238,136,135)" stroke="rgb(238,136,135)" stroke-width="1" opacity="0.9450980392156862" d="M 733.5 581 L 734 607.5 L 733 607.5 L 733.5 581 Z " /><path fill="rgb(238,136,135)" stroke="rgb(238,136,135)" stroke-width="1" opacity="0.9450980392156862" d="M 629.5 582 L 630.5 584 L 629.5 582 Z " /><path fill="rgb(238,136,135)" stroke="rgb(238,136,135)" stroke-width="1" opacity="0.9450980392156862" d="M 909.5 582 L 908.5 584 L 909.5 582 Z " /><path fill="rgb(238,136,135)" stroke="rgb(238,136,135)" stroke-width="1" opacity="0.9450980392156862" d="M 273.5 583 L 274 584.5 L 272.5 587 L 272 585.5 L 273.5 583 Z " /><path fill="rgb(238,136,135)" stroke="rgb(238,136,135)" stroke-width="1" opacity="0.9450980392156862" d="M 535.5 583 L 534.5 585 L 531.5 586 L 531.5 585 L 535.5 583 Z " /><path fill="rgb(238,136,135)" stroke="rgb(238,136,135)" stroke-width="1" opacity="0.9450980392156862" d="M 469.5 585 L 473 586.5 L 471.5 587 L 469.5 585 Z " /><path fill="rgb(238,136,135)" stroke="rgb(238,136,135)" stroke-width="1" opacity="0.9450980392156862" d="M 631.5 585 L 632.5 587 L 631.5 585 Z " /><path fill="rgb(238,136,135)" stroke="rgb(238,136,135)" stroke-width="1" opacity="0.9450980392156862" d="M 671.5 585 L 673 585.5 L 669.5 587 L 669.5 586 L 671.5 585 Z " /><path fill="rgb(238,136,135)" stroke="rgb(238,136,135)" stroke-width="1" opacity="0.9450980392156862" d="M 417.5 587 L 422 590.5 L 419.5 589 L 417.5 587 Z " /><path fill="rgb(238,136,135)" stroke="rgb(238,136,135)" stroke-width="1" opacity="0.9450980392156862" d="M 526.5 587 L 525.5 589 L 523 588.5 L 526.5 587 Z " /><path fill="rgb(238,136,135)" stroke="rgb(238,136,135)" stroke-width="1" opacity="0.9450980392156862" d="M 589.5 587 L 593 592.5 L 592 592.5 L 589.5 587 Z " /><path fill="rgb(238,136,135)" stroke="rgb(238,136,135)" stroke-width="1" opacity="0.9450980392156862" d="M 667.5 587 L 666.5 589 L 665 588.5 L 667.5 587 Z " /><path fill="rgb(238,136,135)" stroke="rgb(238,136,135)" stroke-width="1" opacity="0.9450980392156862" d="M 328.5 588 L 330.5 591 L 328.5 588 Z " /><path fill="rgb(238,136,135)" stroke="rgb(238,136,135)" stroke-width="1" opacity="0.9450980392156862" d="M 477.5 588 L 481 589.5 L 479.5 589 Q 476.5 589.5 477.5 588 Z " /><path fill="rgb(238,136,135)" stroke="rgb(238,136,135)" stroke-width="1" opacity="0.9450980392156862" d="M 483.5 589 L 487 590.5 L 485.5 591 L 483.5 589 Z " /><path fill="rgb(238,136,135)" stroke="rgb(238,136,135)" stroke-width="1" opacity="0.9450980392156862" d="M 512.5 590 L 515 590.5 L 512.5 591 L 512.5 590 Z " /><path fill="rgb(238,136,135)" stroke="rgb(238,136,135)" stroke-width="1" opacity="0.9450980392156862" d="M 640.5 590 L 643 591.5 L 641.5 592 L 640.5 590 Z " /><path fill="rgb(238,136,135)" stroke="rgb(238,136,135)" stroke-width="1" opacity="0.9450980392156862" d="M 645.5 591 L 647.5 592 L 651.5 591 L 650.5 593 Q 645.6 593.6 645.5 591 Z " /><path fill="rgb(238,136,135)" stroke="rgb(238,136,135)" stroke-width="1" opacity="0.9450980392156862" d="M 425.5 592 L 426.5 594 L 425.5 592 Z " /><path fill="rgb(238,136,135)" stroke="rgb(238,136,135)" stroke-width="1" opacity="0.9450980392156862" d="M 335.5 593 L 338 594.5 L 336.5 594 L 335.5 593 Z " /><path fill="rgb(238,136,135)" stroke="rgb(238,136,135)" stroke-width="1" opacity="0.9450980392156862" d="M 769.5 593 L 770 599.5 L 769 599.5 L 769.5 593 Z " /><path fill="rgb(238,136,135)" stroke="rgb(238,136,135)" stroke-width="1" opacity="0.9450980392156862" d="M 258.5 594 L 261 594.5 L 257.5 596 L 258.5 594 Z " /><path fill="rgb(238,136,135)" stroke="rgb(238,136,135)" stroke-width="1" opacity="0.9450980392156862" d="M 339.5 594 L 344 595.5 L 340.5 596 L 339.5 594 Z " /><path fill="rgb(238,136,135)" stroke="rgb(238,136,135)" stroke-width="1" opacity="0.9450980392156862" d="M 428.5 594 L 429.5 596 L 428.5 594 Z " /><path fill="rgb(238,136,135)" stroke="rgb(238,136,135)" stroke-width="1" opacity="0.9450980392156862" d="M 689.5 595 L 688.5 597 L 689.5 595 Z " /><path fill="rgb(238,136,135)" stroke="rgb(238,136,135)" stroke-width="1" opacity="0.9450980392156862" d="M 244.5 596 L 246 596.5 L 240.5 599 L 240.5 598 L 244.5 596 Z " /><path fill="rgb(238,136,135)" stroke="rgb(238,136,135)" stroke-width="1" opacity="0.9450980392156862" d="M 247.5 596 L 251 596.5 L 247.5 597 L 247.5 596 Z " /><path fill="rgb(238,136,135)" stroke="rgb(238,136,135)" stroke-width="1" opacity="0.9450980392156862" d="M 347.5 596 L 350 596.5 L 347.5 597 L 347.5 596 Z " /><path fill="rgb(238,136,135)" stroke="rgb(238,136,135)" stroke-width="1" opacity="0.9450980392156862" d="M 596.5 596 L 598.5 599 L 596.5 596 Z " /><path fill="rgb(238,136,135)" stroke="rgb(238,136,135)" stroke-width="1" opacity="0.9450980392156862" d="M 356.5 597 L 360 598.5 L 358.5 598 Q 355.5 598.5 356.5 597 Z " /><path fill="rgb(238,136,135)" stroke="rgb(238,136,135)" stroke-width="1" opacity="0.9450980392156862" d="M 436.5 599 L 437.5 601 L 436.5 599 Z " /><path fill="rgb(238,136,135)" stroke="rgb(238,136,135)" stroke-width="1" opacity="0.9450980392156862" d="M 684.5 599 L 683.5 601 L 684.5 599 Z " /><path fill="rgb(238,136,135)" stroke="rgb(238,136,135)" stroke-width="1" opacity="0.9450980392156862" d="M 892.5 599 L 891.5 601 L 892.5 599 Z " /><path fill="rgb(238,136,135)" stroke="rgb(238,136,135)" stroke-width="1" opacity="0.9450980392156862" d="M 529.5 601 L 530 603 L 528 602.5 L 529.5 601 Z " /><path fill="rgb(238,136,135)" stroke="rgb(238,136,135)" stroke-width="1" opacity="0.9450980392156862" d="M 826.5 602 L 829.5 606 L 826.5 602 Z " /><path fill="rgb(238,136,135)" stroke="rgb(238,136,135)" stroke-width="1" opacity="0.9450980392156862" d="M 293.5 603 L 297 603.5 L 293.5 604 L 293.5 603 Z " /><path fill="rgb(238,136,135)" stroke="rgb(238,136,135)" stroke-width="1" opacity="0.9450980392156862" d="M 308.5 603 L 313 604.5 L 307.5 605 L 308.5 603 Z " /><path fill="rgb(238,136,135)" stroke="rgb(238,136,135)" stroke-width="1" opacity="0.9450980392156862" d="M 253.5 604 L 257 605.5 L 244.5 606 L 244.5 605 L 252.5 605 L 253.5 604 Z " /><path fill="rgb(238,136,135)" stroke="rgb(238,136,135)" stroke-width="1" opacity="0.9450980392156862" d="M 270.5 604 L 276 604.5 L 270.5 605 L 270.5 604 Z " /><path fill="rgb(238,136,135)" stroke="rgb(238,136,135)" stroke-width="1" opacity="0.9450980392156862" d="M 335 604 Q 339.1 602.7 338 606 Q 333.9 607.3 335 604 Z " /><path fill="rgb(238,136,135)" stroke="rgb(238,136,135)" stroke-width="1" opacity="0.9450980392156862" d="M 344.5 605 L 348 605.5 L 344.5 606 L 344.5 605 Z " /><path fill="rgb(238,136,135)" stroke="rgb(238,136,135)" stroke-width="1" opacity="0.9450980392156862" d="M 349.5 605 L 354 605.5 L 349.5 606 L 349.5 605 Z " /><path fill="rgb(238,136,135)" stroke="rgb(238,136,135)" stroke-width="1" opacity="0.9450980392156862" d="M 519.5 605 L 522 605.5 L 517.5 607 L 517.5 606 L 519.5 605 Z " /><path fill="rgb(238,136,135)" stroke="rgb(238,136,135)" stroke-width="1" opacity="0.9450980392156862" d="M 606.5 605 L 609 606.5 L 607.5 606 L 606.5 605 Z " /><path fill="rgb(238,136,135)" stroke="rgb(238,136,135)" stroke-width="1" opacity="0.9450980392156862" d="M 665.5 609 L 667 609.5 L 664.5 611 L 665.5 609 Z " /><path fill="rgb(238,136,135)" stroke="rgb(238,136,135)" stroke-width="1" opacity="0.9450980392156862" d="M 471.5 610 L 474 610.5 L 471.5 611 L 471.5 610 Z " /><path fill="rgb(238,136,135)" stroke="rgb(238,136,135)" stroke-width="1" opacity="0.9450980392156862" d="M 496.5 610 L 500 610.5 L 496.5 611 L 496.5 610 Z " /><path fill="rgb(238,136,135)" stroke="rgb(238,136,135)" stroke-width="1" opacity="0.9450980392156862" d="M 658.5 611 L 657.5 613 L 656 612.5 L 658.5 611 Z " /><path fill="rgb(238,136,135)" stroke="rgb(238,136,135)" stroke-width="1" opacity="0.9450980392156862" d="M 632.5 613 L 636 613.5 L 632.5 614 L 632.5 613 Z " /><path fill="rgb(238,136,135)" stroke="rgb(238,136,135)" stroke-width="1" opacity="0.9450980392156862" d="M 648.5 613 L 651 613.5 L 648.5 614 L 648.5 613 Z " /><path fill="rgb(238,136,135)" stroke="rgb(238,136,135)" stroke-width="1" opacity="0.9450980392156862" d="M 733.5 617 L 734 620.5 L 733 620.5 L 733.5 617 Z " /><path fill="rgb(238,136,135)" stroke="rgb(238,136,135)" stroke-width="1" opacity="0.9450980392156862" d="M 768.5 626 L 769 631.5 L 768 631.5 L 768.5 626 Z " /><path fill="rgb(238,136,135)" stroke="rgb(238,136,135)" stroke-width="1" opacity="0.9450980392156862" d="M 732.5 635 L 733 637.5 L 732 637.5 L 732.5 635 Z " /><path fill="rgb(238,136,135)" stroke="rgb(238,136,135)" stroke-width="1" opacity="0.9450980392156862" d="M 767.5 642 L 768 645.5 L 767 645.5 L 767.5 642 Z " /><path fill="rgb(238,136,135)" stroke="rgb(238,136,135)" stroke-width="1" opacity="0.9450980392156862" d="M 731.5 644 L 732 646.5 L 731 646.5 L 731.5 644 Z " /><path fill="rgb(238,136,135)" stroke="rgb(238,136,135)" stroke-width="1" opacity="0.9450980392156862" d="M 731.5 653 L 732 658 L 730 657.5 L 731.5 653 Z " /><path fill="rgb(238,136,135)" stroke="rgb(238,136,135)" stroke-width="1" opacity="0.9450980392156862" d="M 766.5 654 L 767 658.5 L 766 658.5 L 766.5 654 Z " /><path fill="rgb(238,136,135)" stroke="rgb(238,136,135)" stroke-width="1" opacity="0.9450980392156862" d="M 730.5 662 L 731 664.5 L 730 664.5 L 730.5 662 Z " /><path fill="rgb(238,136,135)" stroke="rgb(238,136,135)" stroke-width="1" opacity="0.9450980392156862" d="M 729 671 L 731 671.5 L 729.5 676 L 729 671 Z " /><path fill="rgb(238,136,135)" stroke="rgb(238,136,135)" stroke-width="1" opacity="0.9450980392156862" d="M 728.5 680 L 729 682.5 L 728 682.5 L 728.5 680 Z " /><path fill="rgb(238,136,135)" stroke="rgb(238,136,135)" stroke-width="1" opacity="0.9450980392156862" d="M 758.5 693 L 759 695.5 L 758 695.5 L 758.5 693 Z " /><path fill="rgb(238,136,135)" stroke="rgb(238,136,135)" stroke-width="1" opacity="0.9450980392156862" d="M 757.5 697 L 758 698.5 L 756 699.5 L 757.5 697 Z " /><path fill="rgb(238,136,135)" stroke="rgb(238,136,135)" stroke-width="1" opacity="0.9450980392156862" d="M 755.5 703 L 754.5 705 L 755.5 703 Z " /><path fill="rgb(238,136,135)" stroke="rgb(238,136,135)" stroke-width="1" opacity="0.9450980392156862" d="M 753.5 708 L 752 710.5 L 751.5 712 L 751 710.5 L 753.5 708 Z " /><path fill="rgb(238,136,135)" stroke="rgb(238,136,135)" stroke-width="1" opacity="0.9450980392156862" d="M 597.5 709 L 596.5 711 L 595 710.5 L 597.5 709 Z " /><path fill="rgb(238,136,135)" stroke="rgb(238,136,135)" stroke-width="1" opacity="0.9450980392156862" d="M 609.5 709 L 610.5 711 L 609.5 709 Z " /><path fill="rgb(238,136,135)" stroke="rgb(238,136,135)" stroke-width="1" opacity="0.9450980392156862" d="M 593.5 711 L 594 713 L 592 712.5 L 593.5 711 Z " /><path fill="rgb(238,136,135)" stroke="rgb(238,136,135)" stroke-width="1" opacity="0.9450980392156862" d="M 612.5 711 L 614.5 714 L 612.5 711 Z " /><path fill="rgb(238,136,135)" stroke="rgb(238,136,135)" stroke-width="1" opacity="0.9450980392156862" d="M 748.5 717 L 749 718.5 L 747.5 721 L 747 719.5 L 748.5 717 Z " /><path fill="rgb(238,136,135)" stroke="rgb(238,136,135)" stroke-width="1" opacity="0.9450980392156862" d="M 618.5 718 L 619.5 720 L 618.5 718 Z " /><path fill="rgb(238,136,135)" stroke="rgb(238,136,135)" stroke-width="1" opacity="0.9450980392156862" d="M 586.5 721 L 587 723.5 L 586 723.5 L 586.5 721 Z " /><path fill="rgb(238,136,135)" stroke="rgb(238,136,135)" stroke-width="1" opacity="0.9450980392156862" d="M 745.5 723 L 745 724.5 L 744.5 726 L 744 724.5 L 745.5 723 Z " /><path fill="rgb(238,136,135)" stroke="rgb(238,136,135)" stroke-width="1" opacity="0.9450980392156862" d="M 622.5 724 L 623.5 726 Q 620.7 726.7 622.5 724 Z " /><path fill="rgb(238,136,135)" stroke="rgb(238,136,135)" stroke-width="1" opacity="0.9450980392156862" d="M 585.5 725 L 586 732.5 L 585 732.5 L 585.5 725 Z " /><path fill="rgb(238,136,135)" stroke="rgb(238,136,135)" stroke-width="1" opacity="0.9450980392156862" d="M 713.5 729 L 713 730.5 L 711.5 733 L 712 731.5 L 713.5 729 Z " /><path fill="rgb(238,136,135)" stroke="rgb(238,136,135)" stroke-width="1" opacity="0.9450980392156862" d="M 739.5 732 L 737.5 735 L 739.5 732 Z " /><path fill="rgb(238,136,135)" stroke="rgb(238,136,135)" stroke-width="1" opacity="0.9450980392156862" d="M 629.5 736 L 630.5 738 L 629.5 736 Z " /><path fill="rgb(238,136,135)" stroke="rgb(238,136,135)" stroke-width="1" opacity="0.9450980392156862" d="M 587.5 737 L 588 739.5 L 587 739.5 L 587.5 737 Z " /><path fill="rgb(238,136,135)" stroke="rgb(238,136,135)" stroke-width="1" opacity="0.9450980392156862" d="M 734.5 737 L 735 738.5 L 730 742.5 L 732.5 739 Q 735 739.7 734.5 737 Z " /><path fill="rgb(238,136,135)" stroke="rgb(238,136,135)" stroke-width="1" opacity="0.9450980392156862" d="M 703.5 741 L 704 743 L 702 742.5 L 703.5 741 Z " /><path fill="rgb(238,136,135)" stroke="rgb(238,136,135)" stroke-width="1" opacity="0.9450980392156862" d="M 589.5 743 L 590.5 745 L 589.5 743 Z " /><path fill="rgb(238,136,135)" stroke="rgb(238,136,135)" stroke-width="1" opacity="0.9450980392156862" d="M 591.5 746 L 592.5 748 L 591.5 746 Z " /><path fill="rgb(238,136,135)" stroke="rgb(238,136,135)" stroke-width="1" opacity="0.9450980392156862" d="M 640.5 747 L 644 749 L 643.5 751 L 640.5 747 Z " /><path fill="rgb(238,136,135)" stroke="rgb(238,136,135)" stroke-width="1" opacity="0.9450980392156862" d="M 724 747 L 726 747.5 L 722.5 750 L 722.5 749 Q 725.1 749.7 724 747 Z " /><path fill="rgb(238,136,135)" stroke="rgb(238,136,135)" stroke-width="1" opacity="0.9450980392156862" d="M 694.5 748 L 696 748.5 L 692.5 751 L 692 749 L 694.5 748 Z " /><path fill="rgb(238,136,135)" stroke="rgb(238,136,135)" stroke-width="1" opacity="0.9450980392156862" d="M 594.5 749 L 598.5 754 L 594.5 749 Z " /><path fill="rgb(238,136,135)" stroke="rgb(238,136,135)" stroke-width="1" opacity="0.9450980392156862" d="M 648.5 752 L 649.5 754 L 648.5 752 Z " /><path fill="rgb(238,136,135)" stroke="rgb(238,136,135)" stroke-width="1" opacity="0.9450980392156862" d="M 686.5 752 L 688 752.5 L 684.5 754 L 684.5 753 L 686.5 752 Z " /><path fill="rgb(238,136,135)" stroke="rgb(238,136,135)" stroke-width="1" opacity="0.9450980392156862" d="M 718.5 752 L 720 752.5 L 717.5 754 L 718.5 752 Z " /><path fill="rgb(238,136,135)" stroke="rgb(238,136,135)" stroke-width="1" opacity="0.9450980392156862" d="M 679.5 754 L 682 754.5 L 679.5 755 L 679.5 754 Z " /><path fill="rgb(238,136,135)" stroke="rgb(238,136,135)" stroke-width="1" opacity="0.9450980392156862" d="M 661.5 755 L 665 755.5 L 661.5 756 L 661.5 755 Z " /><path fill="rgb(238,136,135)" stroke="rgb(238,136,135)" stroke-width="1" opacity="0.9450980392156862" d="M 669.5 755 L 673 755.5 L 669.5 756 L 669.5 755 Z " /><path fill="rgb(238,136,135)" stroke="rgb(238,136,135)" stroke-width="1" opacity="0.9450980392156862" d="M 601.5 756 L 604 757.5 L 602.5 758 L 601.5 756 Z " /><path fill="rgb(238,136,135)" stroke="rgb(238,136,135)" stroke-width="1" opacity="0.9450980392156862" d="M 711.5 757 L 712 759 L 709.5 760 L 709 758 L 711.5 757 Z " /><path fill="rgb(238,136,135)" stroke="rgb(238,136,135)" stroke-width="1" opacity="0.9450980392156862" d="M 706 760 L 708 760.5 L 706 761.5 L 706 760 Z " /><path fill="rgb(238,136,135)" stroke="rgb(238,136,135)" stroke-width="1" opacity="0.9450980392156862" d="M 610.5 762 L 617 765.5 L 615.5 765 L 610.5 763 L 610.5 762 Z " /><path fill="rgb(238,136,135)" stroke="rgb(238,136,135)" stroke-width="1" opacity="0.9450980392156862" d="M 703.5 762 L 705 762.5 L 701.5 764 L 701.5 763 L 703.5 762 Z " /><path fill="rgb(238,136,135)" stroke="rgb(238,136,135)" stroke-width="1" opacity="0.9450980392156862" d="M 622.5 767 L 627 768.5 L 624.5 769 L 622.5 767 Z " /><path fill="rgb(238,136,135)" stroke="rgb(238,136,135)" stroke-width="1" opacity="0.9450980392156862" d="M 647.5 772 L 650 772.5 L 647.5 773 L 647.5 772 Z " /><path fill="rgb(238,136,135)" stroke="rgb(238,136,135)" stroke-width="1" opacity="0.9450980392156862" d="M 661.5 772 L 664 772.5 L 661.5 773 L 661.5 772 Z " /></svg>